<?xml version="1.0" encoding="UTF-8" standalone="no"?>
<!-- Created with Inkscape (http://www.inkscape.org/) -->

<svg
   width="138.2583mm"
   height="154.91888mm"
   viewBox="0 0 138.2583 154.91888"
   version="1.1"
   id="svg1"
   sodipodi:docname="logoalt2.svg"
   inkscape:version="1.3 (0e150ed, 2023-07-21)"
   xmlns:inkscape="http://www.inkscape.org/namespaces/inkscape"
   xmlns:sodipodi="http://sodipodi.sourceforge.net/DTD/sodipodi-0.dtd"
   xmlns="http://www.w3.org/2000/svg"
   xmlns:svg="http://www.w3.org/2000/svg">
  <sodipodi:namedview
     id="namedview1"
     pagecolor="#ffffff"
     bordercolor="#666666"
     borderopacity="1.0"
     inkscape:showpageshadow="2"
     inkscape:pageopacity="0.0"
     inkscape:pagecheckerboard="0"
     inkscape:deskcolor="#d1d1d1"
     inkscape:document-units="mm"
     inkscape:zoom="1.0620972"
     inkscape:cx="245.74023"
     inkscape:cy="296.11227"
     inkscape:window-width="1392"
     inkscape:window-height="1212"
     inkscape:window-x="964"
     inkscape:window-y="80"
     inkscape:window-maximized="0"
     inkscape:current-layer="layer1" />
  <defs
     id="defs1" />
  <g
     id="layer1"
     transform="translate(-35.238976,-62.598837)">
    <path
       id="path1"
       style="fill:none;fill-opacity:1;stroke:#ffffff;stroke-width:2;stroke-linecap:round;stroke-dasharray:none;stroke-opacity:1"
       d="m 104.67967,92.65429 c -21.427955,-8.9e-5 -38.798763,17.37072 -38.798671,38.79867 0.03408,10.70214 4.482562,20.84722 12.180625,28.1049 1.700329,1.60305 3.525512,4.60294 3.887098,6.91281 l 1.309458,8.36505 c 0.217435,1.38901 0.578057,3.64263 0.662546,5.04549 0.03624,0.60164 0.05192,1.16097 0.05739,1.66234 0.01524,1.39558 1.199753,2.52635 2.60568,2.52635 h 36.638234 c 1.40593,0 2.57875,-1.13125 2.59033,-2.52709 0.004,-0.50255 0.0194,-1.06259 0.0568,-1.66372 0.0873,-1.40248 0.47364,-3.65232 0.70659,-5.03881 l 1.49661,-8.90739 c 0.38739,-2.30568 2.20705,-5.33725 3.86989,-6.97915 7.31421,-7.22209 11.50778,-17.10665 11.53607,-27.50078 9e-5,-21.42795 -17.37071,-38.798756 -38.79866,-38.79867 z" />
    <rect
       style="fill:#ffffff;fill-opacity:1;stroke:#ffffff;stroke-width:1.39685;stroke-linecap:round;stroke-dasharray:none;stroke-opacity:1"
       id="rect2"
       width="38.359829"
       height="2.0273769"
       x="85.820084"
       y="186.77609"
       ry="1.0136884" />
    <rect
       style="fill:#ffffff;fill-opacity:1;stroke:#ffffff;stroke-width:1.24612;stroke-linecap:round;stroke-dasharray:none;stroke-opacity:1"
       id="rect3"
       width="33.657433"
       height="1.8388984"
       x="88.24646"
       y="191.53201"
       ry="0.91944921" />
    <rect
       style="fill:#000000;fill-opacity:1;stroke:#ffffff;stroke-width:0.914;stroke-linecap:round;stroke-dasharray:none;stroke-opacity:1"
       id="rect4"
       width="40.352364"
       height="0.66151416"
       x="2.329818"
       y="163.87119"
       ry="0.33075708"
       transform="rotate(-53.577961)" />
    <rect
       style="fill:#000000;fill-opacity:1;stroke:#ffffff;stroke-width:0.859383;stroke-linecap:round;stroke-dasharray:none;stroke-opacity:1"
       id="rect5"
       width="38.700275"
       height="0.6097824"
       x="-121.64891"
       y="-10.534874"
       ry="0.3048912"
       transform="matrix(-0.54180816,-0.84050218,-0.76398071,0.64523909,0,0)" />
    <rect
       style="fill:#000000;fill-opacity:1;stroke:#ffffff;stroke-width:0.691652;stroke-linecap:round;stroke-dasharray:none;stroke-opacity:1"
       id="rect6"
       width="23.678476"
       height="0.64556032"
       x="172.63664"
       y="186.99219"
       ry="0.32278016"
       transform="matrix(0.92311287,-0.38452909,-0.04294175,0.99907758,0,0)" />
    <rect
       style="fill:#000000;fill-opacity:1;stroke:#ffffff;stroke-width:0.705424;stroke-linecap:round;stroke-dasharray:none;stroke-opacity:1"
       id="rect7"
       width="24.66987"
       height="0.644539"
       x="-58.101902"
       y="99.121758"
       ry="0.3222695"
       transform="matrix(-0.92964487,-0.3684568,0.04512765,0.99898123,0,0)" />
    <rect
       style="fill:#ffffff;fill-opacity:1;stroke:#ffffff;stroke-width:0.60672;stroke-linecap:round;stroke-dasharray:none;stroke-opacity:1"
       id="rect8"
       width="17.067791"
       height="0.68915194"
       x="-22.48864"
       y="132.57709"
       ry="0.34457597"
       transform="matrix(-0.99997906,-0.0064713,0.26297096,0.96480375,0,0)" />
    <rect
       style="fill:#ffffff;fill-opacity:1;stroke:#ffffff;stroke-width:0.60672;stroke-linecap:round;stroke-dasharray:none;stroke-opacity:1"
       id="rect9"
       width="17.067791"
       height="0.68915194"
       x="-134.26353"
       y="131.82738"
       ry="0.34457597"
       transform="matrix(-0.99997906,-0.0064713,0.26297096,0.96480375,0,0)" />
    <rect
       style="fill:#000000;fill-opacity:1;stroke:#ffffff;stroke-width:0.705424;stroke-linecap:round;stroke-dasharray:none;stroke-opacity:1"
       id="rect10"
       width="24.66987"
       height="0.644539"
       x="-58.101902"
       y="99.121758"
       ry="0.3222695"
       transform="matrix(-0.92964487,-0.3684568,0.04512765,0.99898123,0,0)" />
    <rect
       style="fill:#ffffff;fill-opacity:1;stroke:#ffffff;stroke-width:0.60672;stroke-linecap:round;stroke-dasharray:none;stroke-opacity:1"
       id="rect11"
       width="17.067791"
       height="0.68915194"
       x="-111.47099"
       y="34.538082"
       ry="0.34457597"
       transform="matrix(-0.69546802,-0.71855705,-0.50480296,0.8632346,0,0)" />
    <rect
       style="fill:#ffffff;fill-opacity:1;stroke:#ffffff;stroke-width:0.60672;stroke-linecap:round;stroke-dasharray:none;stroke-opacity:1"
       id="rect12"
       width="17.067791"
       height="0.68915194"
       x="74.237137"
       y="189.12166"
       ry="0.34457597"
       transform="matrix(0.69546802,-0.71855705,0.50480296,0.8632346,0,0)" />
    <path
       id="rect13"
       style="fill:#ffffff;fill-opacity:1;stroke:#ffffff;stroke-width:0.117628;stroke-linecap:round;stroke-opacity:1"
       d="m 166.03995,81.612654 3.03782,1.81446 -3.03304,1.817311 z" />
    <rect
       style="fill:#ffffff;fill-opacity:1;stroke:#ffffff;stroke-width:0.525929;stroke-linecap:round;stroke-dasharray:none;stroke-opacity:1"
       id="rect15"
       width="11.059262"
       height="0.79918146"
       x="161.40245"
       y="86.752075"
       ry="0.39959073"
       transform="matrix(0.99999999,1.1159946e-4,-5.7433334e-6,1,0,0)" />
    <circle
       style="fill:#ffffff;fill-opacity:1;stroke:#ffffff;stroke-width:0.44591;stroke-linecap:round;stroke-dasharray:none;stroke-opacity:1"
       id="path15"
       cx="166.99756"
       cy="90.429314"
       r="1.0709984" />
    <path
       id="path16"
       style="fill:#ffffff;fill-opacity:1;stroke:#ffffff;stroke-width:0.117628;stroke-linecap:round;stroke-opacity:1"
       d="m 42.353016,92.527215 3.03781,-1.81446 -3.03304,-1.817311 z" />
    <rect
       style="fill:#ffffff;fill-opacity:1;stroke:#ffffff;stroke-width:0.525929;stroke-linecap:round;stroke-dasharray:none;stroke-opacity:1"
       id="rect16"
       width="11.059262"
       height="0.79918146"
       x="37.714516"
       y="-87.373993"
       ry="0.39959073"
       transform="matrix(0.99999999,-1.1159946e-4,-5.7433334e-6,-1,0,0)" />
    <circle
       style="fill:#ffffff;fill-opacity:1;stroke:#ffffff;stroke-width:0.44591;stroke-linecap:round;stroke-dasharray:none;stroke-opacity:1"
       id="circle16"
       cx="43.310616"
       cy="-83.710548"
       r="1.0709984"
       transform="scale(1,-1)" />
    <rect
       style="fill:#ffffff;fill-opacity:1;stroke:#ffffff;stroke-width:1.0617;stroke-linecap:round;stroke-dasharray:none;stroke-opacity:1"
       id="rect14"
       width="28.301596"
       height="1.5874976"
       x="90.924377"
       y="195.68263"
       ry="0.7937488" />
    <rect
       style="fill:#ffffff;fill-opacity:1;stroke:#ffffff;stroke-width:0.582758;stroke-linecap:round;stroke-dasharray:none;stroke-opacity:1"
       id="rect17"
       width="16.404219"
       height="0.66151136"
       x="-83.020065"
       y="104.75621"
       ry="0.33075568"
       transform="matrix(0.00787664,-0.99996898,0.99999915,0.00130168,0,0)" />
    <path
       style="fill:none;stroke:#ffffff;stroke-width:1.565;stroke-linecap:round;stroke-linejoin:miter;stroke-dasharray:none;stroke-opacity:1"
       d="m 166.68746,171.97917 c 0,0 -0.18422,-5.13734 -7.9375,-5.29167 -5.97609,-0.11895 -7.94722,3.23443 -8.53686,4.77798 -0.15603,0.40846 -0.22853,1.11337 -0.22853,1.55175 v 15.57584 c 0,0 0,13.09866 -11.3205,13.09866 -8.91604,0 -12.61356,-8.12532 -13.78202,-11.57692 -0.28084,-0.82959 -0.44504,-2.23249 -0.4435,-3.10924 l 0.0344,-19.59559 -0.31617,-2.57438"
       id="path24"
       transform="translate(1.712362,15.043489)" />
    <path
       style="fill:none;stroke:#ffffff;stroke-width:1.565;stroke-linecap:round;stroke-linejoin:miter;stroke-dasharray:none;stroke-opacity:1"
       d="m 166.68746,171.97917 c 0,0 -0.18422,-5.13734 -7.9375,-5.29167 -5.97609,-0.11895 -7.94722,3.23443 -8.53686,4.77798 -0.15603,0.40846 -0.22853,1.11337 -0.22853,1.55175 v 15.57584 c 0,0 0,13.09866 -11.3205,13.09866 -8.91604,0 -12.61356,-8.12532 -13.78202,-11.57692 -0.28084,-0.82959 -0.44504,-2.23249 -0.4435,-3.10924 l 0.0344,-19.59559 -0.31617,-2.57438"
       id="path25"
       transform="matrix(-1,0,0,1,208.30774,15.043489)" />
    <rect
       style="fill:#ffffff;fill-opacity:1;stroke:#ffffff;stroke-width:0.9366;stroke-linecap:round;stroke-dasharray:none;stroke-opacity:1"
       id="rect27"
       width="20.416153"
       height="1.7125971"
       x="94.801971"
       y="199.42706"
       ry="0.85629857" />
    <path
       style="fill:none;stroke:#ffffff;stroke-width:2;stroke-linecap:round;stroke-linejoin:miter;stroke-dasharray:none;stroke-opacity:1"
       d="m 82.02083,95.250001 a 23.508406,23.508406 90 0 0 0,18.520829"
       id="path28"
       transform="rotate(26.039358,58.130577,103.86212)" />
    <path
       id="path32"
       style="fill:none;fill-opacity:1;stroke:#ffffff;stroke-width:1;stroke-linecap:round;stroke-dasharray:none;stroke-opacity:1"
       d="m 48.809171,155.20706 a 9.6974268,9.965209 0 0 0 -3.798218,0.84595 l -0.101803,3.1595 -2.943489,-0.9617 a 9.6974268,9.965209 0 0 0 -2.076876,3.34295 l 2.087728,2.22673 -2.753837,1.39732 a 9.6974268,9.965209 0 0 0 0.780831,3.83284 l 3.157946,0.10181 -1.016475,3.1104 a 9.6974268,9.965209 0 0 0 3.164665,2.12804 l 2.459798,-2.30632 1.530656,3.01688 a 9.6974268,9.965209 0 0 0 3.694348,-0.90022 l 0.106453,-3.3016 2.969845,0.97048 a 9.6974268,9.965209 0 0 0 1.979207,-3.42718 l -2.016414,-2.15077 2.57607,-1.3069 a 9.6974268,9.965209 0 0 0 -0.861963,-3.93153 l -2.899048,-0.0935 0.927592,-2.8391 a 9.6974268,9.965209 0 0 0 -3.274218,-2.2133 l -2.261361,2.12028 z" />
    <path
       style="fill:#ffffff;fill-opacity:1;stroke:#ffffff;stroke-width:0.999626;stroke-linecap:round;stroke-dasharray:none;stroke-opacity:1"
       id="path34"
       d="M 95.394173,237.22654 78.909362,226.6822 74.692802,207.57323 91.177613,218.11757 Z"
       transform="matrix(0.22174514,0.15195513,-0.15195513,0.22174514,119.94688,147.87798)" />
    <circle
       style="fill:none;fill-opacity:1;stroke:#ffffff;stroke-width:0.866255;stroke-linecap:round;stroke-dasharray:none;stroke-opacity:1"
       id="circle36"
       cx="48.917553"
       cy="165.15811"
       r="2.0801213" />
    <circle
       style="fill:none;fill-opacity:1;stroke:#ffffff;stroke-width:0.866255;stroke-linecap:round;stroke-dasharray:none;stroke-opacity:1"
       id="circle37"
       cx="48.917553"
       cy="165.15811"
       r="2.0801213" />
    <path
       id="path37"
       style="fill:none;fill-opacity:1;stroke:#ffffff;stroke-width:1;stroke-linecap:round;stroke-dasharray:none;stroke-opacity:1"
       d="m 159.97139,155.20706 a 9.6974268,9.965209 0 0 0 -3.79822,0.84595 l -0.1018,3.1595 -2.94349,-0.9617 a 9.6974268,9.965209 0 0 0 -2.07688,3.34295 l 2.08773,2.22673 -2.75384,1.39732 a 9.6974268,9.965209 0 0 0 0.78083,3.83284 l 3.15795,0.10181 -1.01648,3.1104 a 9.6974268,9.965209 0 0 0 3.16467,2.12804 l 2.4598,-2.30632 1.53065,3.01688 a 9.6974268,9.965209 0 0 0 3.69435,-0.90022 l 0.10645,-3.3016 2.96985,0.97048 a 9.6974268,9.965209 0 0 0 1.97921,-3.42718 l -2.01642,-2.15077 2.57607,-1.3069 a 9.6974268,9.965209 0 0 0 -0.86196,-3.93153 l -2.89905,-0.0935 0.92759,-2.8391 a 9.6974268,9.965209 0 0 0 -3.27422,-2.2133 l -2.26136,2.12028 z" />
    <circle
       style="fill:none;fill-opacity:1;stroke:#ffffff;stroke-width:0.866255;stroke-linecap:round;stroke-dasharray:none;stroke-opacity:1"
       id="circle38"
       cx="160.07977"
       cy="165.15811"
       r="2.0801213" />
    <circle
       style="fill:none;fill-opacity:1;stroke:#ffffff;stroke-width:0.866255;stroke-linecap:round;stroke-dasharray:none;stroke-opacity:1"
       id="circle39"
       cx="160.07977"
       cy="165.15811"
       r="2.0801213" />
    <path
       style="fill:none;fill-opacity:1;stroke:#ffffff;stroke-width:0.74;stroke-linecap:round;stroke-dasharray:none;stroke-opacity:1"
       d="m 89.720752,141.68829 c 0.03674,0 0.07338,0 0.110013,0 0.03663,-0.001 0.07327,-0.002 0.109902,-0.003 0.03663,-0.001 0.07316,-0.002 0.10968,-0.004 0.03664,-10e-4 0.07305,-0.003 0.10957,-0.006 0.03641,-0.002 0.07282,-0.004 0.109125,-0.008 0.0363,-0.002 0.0726,-0.006 0.108681,-0.009 0.03619,-0.003 0.07227,-0.008 0.108348,-0.0111 0.03597,-0.004 0.07183,-0.008 0.107682,-0.0122 0.03575,-0.006 0.07138,-0.01 0.107015,-0.0144 0.03552,-0.006 0.07094,-0.0111 0.106239,-0.0167 0.0353,-0.006 0.07049,-0.0111 0.105573,-0.0166 0.03497,-0.007 0.06983,-0.0133 0.104573,-0.02 0.03475,-0.007 0.06927,-0.0133 0.103575,-0.02 0.03441,-0.008 0.06861,-0.0144 0.102686,-0.0222 0.03397,-0.008 0.06783,-0.0155 0.101466,-0.0244 0.03364,-0.008 0.06705,-0.0166 0.100244,-0.0255 0.0333,-0.008 0.06627,-0.0166 0.09913,-0.0266 0.03275,-0.009 0.06527,-0.0189 0.09769,-0.0278 0.03231,-0.01 0.06439,-0.02 0.09625,-0.03 0.03186,-0.01 0.0635,-0.02 0.09492,-0.0311 0.03131,-0.0111 0.06239,-0.0211 0.09325,-0.0322 0.03086,-0.0111 0.06139,-0.0222 0.0917,-0.0344 0.03031,-0.0111 0.06028,-0.0233 0.09003,-0.0344 0.02975,-0.0122 0.05917,-0.0244 0.08826,-0.0366 0.0292,-0.0122 0.05806,-0.0244 0.08659,-0.0377 0.02853,-0.0122 0.05673,-0.0255 0.08459,-0.0389 0.02797,-0.0133 0.05551,-0.0266 0.08281,-0.04 0.0272,-0.0133 0.05417,-0.0266 0.08082,-0.0411 0.02653,-0.0133 0.05284,-0.0277 0.07871,-0.0422 0.02598,-0.0144 0.05151,-0.0289 0.07671,-0.0433 0.02531,-0.0144 0.05018,-0.0289 0.0746,-0.0444 0.02453,-0.0144 0.04874,-0.03 0.07249,-0.0444 0.02376,-0.0155 0.04718,-0.0311 0.07027,-0.0466 0.02298,-0.0155 0.04563,-0.0311 0.06794,-0.0466 0.02231,-0.0155 0.04418,-0.0322 0.06572,-0.0477 0.02154,-0.0166 0.04263,-0.0322 0.06339,-0.0488 0.02065,-0.0155 0.04107,-0.0322 0.06095,-0.0488 0.01998,-0.0166 0.03952,-0.0333 0.05861,-0.05 0.0192,-0.0166 0.03785,-0.0333 0.05617,-0.0511 0.01832,-0.0166 0.0363,-0.0333 0.05373,-0.05 0.01754,-0.0178 0.03464,-0.0344 0.05129,-0.0522 0.01665,-0.0167 0.03286,-0.0344 0.04873,-0.0522 0.01587,-0.0166 0.03119,-0.0344 0.04618,-0.0522 0.01499,-0.0178 0.02953,-0.0355 0.04374,-0.0533 0.0141,-0.0178 0.02775,-0.0344 0.04108,-0.0522 0.01332,-0.0178 0.02609,-0.0355 0.03852,-0.0544 0.01243,-0.0178 0.02442,-0.0355 0.03597,-0.0533 0.01154,-0.0178 0.02265,-0.0355 0.0333,-0.0533 0.01077,-0.0178 0.02098,-0.0355 0.03075,-0.0544 0.0099,-0.0178 0.0192,-0.0355 0.0282,-0.0533 0.009,-0.0178 0.01743,-0.0355 0.02553,-0.0544 0.0081,-0.0178 0.01576,-0.0355 0.02298,-0.0533 0.0072,-0.0178 0.01399,-0.0355 0.02031,-0.0533 0.0063,-0.0178 0.01221,-0.0366 0.01776,-0.0544 0.0054,-0.0178 0.01055,-0.0355 0.01521,-0.0522 0.0046,-0.0178 0.0088,-0.0355 0.01254,-0.0533 0.0038,-0.0178 0.0071,-0.0355 0.0101,-0.0533 0.0029,-0.0166 0.0054,-0.0344 0.0074,-0.0522 0.0021,-0.0167 0.0038,-0.0344 0.005,-0.0511 0.0013,-0.0178 0.0021,-0.0344 0.0026,-0.0522 4.44e-4,-0.0166 4.44e-4,-0.0333 0,-0.0499 -3.33e-4,-0.0166 -0.0012,-0.0344 -0.0024,-0.05 -0.0011,-0.0166 -0.0028,-0.0333 -0.0048,-0.0499 -0.002,-0.0166 -0.0044,-0.0333 -0.0072,-0.0488 -0.0028,-0.0166 -0.006,-0.0322 -0.0095,-0.0477 -0.0036,-0.0166 -0.0075,-0.0322 -0.01188,-0.0477 -0.0043,-0.0155 -0.009,-0.0311 -0.0141,-0.0466 -0.0051,-0.0155 -0.01055,-0.03 -0.01632,-0.0455 -0.0058,-0.0155 -0.01199,-0.03 -0.01854,-0.0444 -0.0065,-0.0156 -0.01343,-0.03 -0.02065,-0.0444 -0.0072,-0.0144 -0.01488,-0.0277 -0.02276,-0.0422 -0.008,-0.0144 -0.01621,-0.0278 -0.02487,-0.0422 -0.0085,-0.0133 -0.01754,-0.0266 -0.02675,-0.04 -0.0092,-0.0133 -0.01887,-0.0266 -0.02875,-0.04 -0.0099,-0.0122 -0.02009,-0.0255 -0.03053,-0.0377 -0.01055,-0.0122 -0.02131,-0.0255 -0.03242,-0.0366 -0.0111,-0.0122 -0.02254,-0.0244 -0.03419,-0.0366 -0.01166,-0.0111 -0.02365,-0.0233 -0.03586,-0.0344 -0.01232,-0.0111 -0.02476,-0.0222 -0.03752,-0.0333 -0.01277,-0.01 -0.02587,-0.0211 -0.03908,-0.0311 -0.01332,-0.0111 -0.02687,-0.0211 -0.04063,-0.0311 -0.01377,-0.009 -0.02775,-0.0189 -0.04207,-0.0289 -0.01421,-0.009 -0.02864,-0.0178 -0.04329,-0.0266 -0.01476,-0.01 -0.02964,-0.0178 -0.04474,-0.0266 -0.0151,-0.009 -0.03042,-0.0166 -0.04596,-0.0244 -0.01543,-0.008 -0.03119,-0.0155 -0.04707,-0.0233 -0.01576,-0.008 -0.03186,-0.0144 -0.04807,-0.0211 -0.01621,-0.007 -0.03264,-0.0133 -0.04918,-0.02 -0.01654,-0.007 -0.03319,-0.0122 -0.05007,-0.0189 -0.01676,-0.006 -0.03375,-0.0111 -0.05084,-0.0167 -0.0171,-0.004 -0.03441,-0.01 -0.05173,-0.0144 -0.01732,-0.006 -0.03486,-0.01 -0.0524,-0.0133 -0.01754,-0.004 -0.03519,-0.009 -0.05295,-0.0122 -0.01776,-0.003 -0.03563,-0.007 -0.05351,-0.01 -0.01787,-0.003 -0.03597,-0.007 -0.05395,-0.009 -0.0181,-0.002 -0.03619,-0.004 -0.0544,-0.007 -0.0181,-0.002 -0.0363,-0.003 -0.05462,-0.004 -0.01821,-0.002 -0.03652,-0.003 -0.05484,-0.004 -0.01821,0 -0.03652,-0.001 -0.05495,-0.001 -0.01832,0 -0.03663,0 -0.05495,0 -0.01832,0 -0.03663,0.001 -0.05495,0.001 -0.01832,10e-4 -0.03652,0.002 -0.05484,0.004 -0.01821,0.001 -0.03641,0.002 -0.05462,0.004 -0.0181,0.002 -0.0363,0.004 -0.05429,0.007 -0.0181,0.002 -0.03608,0.006 -0.05395,0.009 -0.01798,0.003 -0.03575,0.007 -0.05351,0.01 -0.01776,0.003 -0.03541,0.008 -0.05306,0.0122 -0.01754,0.003 -0.03497,0.008 -0.05229,0.0133 -0.01743,0.004 -0.03464,0.01 -0.05173,0.0144 -0.0171,0.006 -0.03408,0.0111 -0.05095,0.0167 -0.01676,0.007 -0.03353,0.0122 -0.05007,0.0189 -0.01654,0.007 -0.03286,0.0133 -0.04907,0.02 -0.01621,0.007 -0.0323,0.0133 -0.04818,0.0211 -0.01587,0.008 -0.03153,0.0155 -0.04707,0.0233 -0.01543,0.008 -0.03075,0.0155 -0.04585,0.0244 -0.0151,0.009 -0.03008,0.0166 -0.04474,0.0266 -0.01465,0.009 -0.0292,0.0178 -0.04341,0.0266 -0.01421,0.01 -0.0282,0.02 -0.04196,0.0289 -0.01377,0.01 -0.02731,0.02 -0.04063,0.0311 -0.01332,0.01 -0.02631,0.0211 -0.03908,0.0311 -0.01277,0.0111 -0.02531,0.0222 -0.03752,0.0333 -0.01221,0.0111 -0.0242,0.0233 -0.03586,0.0344 -0.01166,0.0122 -0.02309,0.0244 -0.03419,0.0366 -0.0111,0.0111 -0.02187,0.0244 -0.03242,0.0366 -0.01055,0.0122 -0.02076,0.0255 -0.03064,0.0377 -0.0099,0.0133 -0.01943,0.0266 -0.02864,0.04 -0.0093,0.0133 -0.01821,0.0266 -0.02687,0.04 -0.0085,0.0144 -0.01687,0.0278 -0.02476,0.0422 -0.008,0.0144 -0.01554,0.0277 -0.02276,0.0422 -0.0072,0.0144 -0.0141,0.0289 -0.02065,0.0444 -0.0065,0.0144 -0.01277,0.0289 -0.01854,0.0444 -0.0059,0.0155 -0.01132,0.03 -0.01643,0.0455 -0.005,0.0155 -0.0098,0.0311 -0.0141,0.0466 -0.0043,0.0155 -0.0082,0.0311 -0.01188,0.0477 -0.0036,0.0155 -0.0067,0.0311 -0.0095,0.0477 -0.0028,0.0155 -0.0051,0.0322 -0.0071,0.0488 -0.002,0.0166 -0.0037,0.0333 -0.0049,0.0499 -0.0012,0.0155 -0.002,0.0333 -0.0024,0.05 -3.33e-4,0.0166 -3.33e-4,0.0333 1.11e-4,0.0499 4.44e-4,0.0178 0.0012,0.0344 0.0024,0.0522 0.0013,0.0166 0.003,0.0344 0.005,0.0511 0.0021,0.0178 0.0047,0.0355 0.0075,0.0522 0.0029,0.0178 0.0063,0.0355 0.0101,0.0533 0.0038,0.0178 0.0079,0.0355 0.01254,0.0533 0.0047,0.0167 0.0097,0.0344 0.01521,0.0522 0.0054,0.0178 0.01132,0.0366 0.01776,0.0544 0.0063,0.0178 0.0131,0.0355 0.02031,0.0533 0.0072,0.0178 0.01488,0.0355 0.02298,0.0533 0.008,0.0189 0.01654,0.0366 0.02553,0.0544 0.0089,0.0178 0.01832,0.0355 0.02809,0.0533 0.0099,0.0189 0.02009,0.0366 0.03075,0.0544 0.01066,0.0178 0.02187,0.0355 0.03341,0.0533 0.01154,0.0178 0.02353,0.0355 0.03586,0.0533 0.01243,0.0189 0.02531,0.0366 0.03863,0.0544 0.01321,0.0178 0.02698,0.0344 0.04107,0.0522 0.0141,0.0178 0.02864,0.0355 0.04363,0.0533 0.01499,0.0178 0.03042,0.0355 0.04629,0.0522 0.01576,0.0178 0.03208,0.0355 0.04874,0.0522 0.01665,0.0178 0.03375,0.0344 0.05118,0.0522 0.01754,0.0166 0.03541,0.0333 0.05373,0.05 0.01832,0.0178 0.03708,0.0344 0.05617,0.0511 0.01921,0.0166 0.03874,0.0333 0.05862,0.05 0.01998,0.0166 0.0403,0.0333 0.06106,0.0488 0.02076,0.0167 0.04185,0.0322 0.06339,0.0488 0.02154,0.0155 0.04341,0.0322 0.06572,0.0477 0.0222,0.0156 0.04485,0.0311 0.06794,0.0466 0.02309,0.0155 0.0464,0.0311 0.07027,0.0466 0.02376,0.0144 0.04785,0.03 0.07238,0.0444 0.02453,0.0155 0.0494,0.03 0.0746,0.0444 0.0252,0.0144 0.05084,0.0289 0.07671,0.0433 0.02598,0.0144 0.05218,0.0289 0.07882,0.0422 0.02664,0.0144 0.05351,0.0278 0.08082,0.0411 0.0272,0.0133 0.05484,0.0266 0.0827,0.04 0.02797,0.0133 0.05617,0.0267 0.0847,0.0389 0.02853,0.0133 0.05739,0.0255 0.08648,0.0377 0.0292,0.0122 0.05861,0.0244 0.08837,0.0366 0.02964,0.0111 0.05972,0.0233 0.09003,0.0344 0.03019,0.0122 0.06083,0.0233 0.0917,0.0344 0.03075,0.0111 0.06194,0.0211 0.09325,0.0322 0.03142,0.0111 0.06294,0.0211 0.0948,0.0311 0.03186,0.01 0.06405,0.02 0.09636,0.03 0.0323,0.009 0.06494,0.0189 0.09769,0.0278 0.03275,0.01 0.06583,0.0189 0.09902,0.0266 0.0333,0.009 0.06672,0.0178 0.100355,0.0255 0.03364,0.009 0.06739,0.0166 0.101465,0.0244 0.03397,0.008 0.06827,0.0144 0.102576,0.0222 0.03441,0.007 0.06894,0.0133 0.103685,0.02 0.03464,0.007 0.0696,0.0133 0.104574,0.02 0.03508,0.006 0.07016,0.0111 0.105461,0.0166 0.0353,0.006 0.07083,0.0111 0.10635,0.0167 0.03552,0.004 0.07127,0.009 0.107015,0.0144 0.0358,0.004 0.0717,0.008 0.10768,0.0122 0.036,0.003 0.0721,0.008 0.10824,0.0111 0.0362,0.003 0.0725,0.007 0.10879,0.009 0.0363,0.003 0.0727,0.006 0.10913,0.008 0.0364,0.002 0.0729,0.004 0.10945,0.006 0.0365,0.002 0.0732,0.003 0.1098,0.004 0.0365,0.001 0.0732,0.002 0.1099,0.003 0.0366,0 0.0733,0 0.1099,0"
       title="t/12+cos(t/4) sin(t/4)"
       id="path39" />
    <path
       style="fill:none;fill-opacity:1;stroke:#ffffff;stroke-width:0.74;stroke-linecap:round;stroke-dasharray:none;stroke-opacity:1"
       d="m 94.533636,141.68829 c 0.0367,0 0.0734,0 0.11001,0 0.0366,-0.001 0.0733,-0.002 0.1099,-0.003 0.0366,-0.001 0.0732,-0.002 0.10968,-0.004 0.0366,-10e-4 0.073,-0.003 0.10957,-0.006 0.0364,-0.002 0.0728,-0.004 0.10913,-0.008 0.0363,-0.002 0.0726,-0.006 0.10868,-0.009 0.0362,-0.003 0.0723,-0.008 0.10834,-0.0111 0.036,-0.004 0.0718,-0.008 0.10769,-0.0122 0.0358,-0.006 0.0714,-0.01 0.10701,-0.0144 0.0355,-0.006 0.0709,-0.0111 0.10624,-0.0167 0.0353,-0.006 0.0705,-0.0111 0.10557,-0.0166 0.035,-0.007 0.0698,-0.0133 0.10458,-0.02 0.0348,-0.007 0.0693,-0.0133 0.10357,-0.02 0.0344,-0.008 0.0686,-0.0144 0.10269,-0.0222 0.034,-0.008 0.0678,-0.0155 0.10146,-0.0244 0.0336,-0.008 0.067,-0.0166 0.10025,-0.0255 0.0333,-0.008 0.0663,-0.0166 0.0991,-0.0266 0.0327,-0.009 0.0653,-0.0189 0.0977,-0.0278 0.0323,-0.01 0.0644,-0.02 0.0962,-0.03 0.0319,-0.01 0.0635,-0.02 0.0949,-0.0311 0.0313,-0.0111 0.0624,-0.0211 0.0932,-0.0322 0.0309,-0.0111 0.0614,-0.0222 0.0917,-0.0344 0.0303,-0.0111 0.0603,-0.0233 0.09,-0.0344 0.0297,-0.0122 0.0592,-0.0244 0.0883,-0.0366 0.0292,-0.0122 0.0581,-0.0244 0.0866,-0.0377 0.0285,-0.0122 0.0567,-0.0255 0.0846,-0.0389 0.028,-0.0133 0.0555,-0.0266 0.0828,-0.04 0.0272,-0.0133 0.0542,-0.0266 0.0808,-0.0411 0.0265,-0.0133 0.0528,-0.0277 0.0787,-0.0422 0.026,-0.0144 0.0515,-0.0289 0.0767,-0.0433 0.0253,-0.0144 0.0502,-0.0289 0.0746,-0.0444 0.0245,-0.0144 0.0487,-0.03 0.0725,-0.0444 0.0238,-0.0155 0.0472,-0.0311 0.0703,-0.0466 0.023,-0.0155 0.0456,-0.0311 0.0679,-0.0466 0.0223,-0.0155 0.0442,-0.0322 0.0657,-0.0477 0.0215,-0.0166 0.0426,-0.0322 0.0634,-0.0488 0.0207,-0.0155 0.0411,-0.0322 0.061,-0.0488 0.02,-0.0166 0.0395,-0.0333 0.0586,-0.05 0.0192,-0.0166 0.0379,-0.0333 0.0562,-0.0511 0.0183,-0.0166 0.0363,-0.0333 0.0537,-0.05 0.0175,-0.0178 0.0346,-0.0344 0.0513,-0.0522 0.0166,-0.0167 0.0329,-0.0344 0.0487,-0.0522 0.0159,-0.0166 0.0312,-0.0344 0.0462,-0.0522 0.015,-0.0178 0.0295,-0.0355 0.0437,-0.0533 0.0141,-0.0178 0.0277,-0.0344 0.0411,-0.0522 0.0133,-0.0178 0.0261,-0.0355 0.0385,-0.0544 0.0124,-0.0178 0.0244,-0.0355 0.036,-0.0533 0.0115,-0.0178 0.0226,-0.0355 0.0333,-0.0533 0.0108,-0.0178 0.021,-0.0355 0.0307,-0.0544 0.01,-0.0178 0.0192,-0.0355 0.0282,-0.0533 0.009,-0.0178 0.0174,-0.0355 0.0255,-0.0544 0.008,-0.0178 0.0158,-0.0355 0.023,-0.0533 0.007,-0.0178 0.014,-0.0355 0.0203,-0.0533 0.006,-0.0178 0.0122,-0.0366 0.0178,-0.0544 0.005,-0.0178 0.0106,-0.0355 0.0152,-0.0522 0.005,-0.0178 0.009,-0.0355 0.0125,-0.0533 0.004,-0.0178 0.007,-0.0355 0.0101,-0.0533 0.003,-0.0166 0.005,-0.0344 0.007,-0.0522 0.002,-0.0167 0.004,-0.0344 0.005,-0.0511 10e-4,-0.0178 0.002,-0.0344 0.003,-0.0522 4.4e-4,-0.0166 4.4e-4,-0.0333 0,-0.0499 -3.4e-4,-0.0166 -0.001,-0.0344 -0.002,-0.05 -10e-4,-0.0166 -0.003,-0.0333 -0.005,-0.0499 -0.002,-0.0166 -0.004,-0.0333 -0.007,-0.0488 -0.003,-0.0166 -0.006,-0.0322 -0.009,-0.0477 -0.004,-0.0166 -0.008,-0.0322 -0.0119,-0.0477 -0.004,-0.0155 -0.009,-0.0311 -0.0141,-0.0466 -0.005,-0.0155 -0.0105,-0.03 -0.0163,-0.0455 -0.006,-0.0155 -0.012,-0.03 -0.0185,-0.0444 -0.006,-0.0156 -0.0134,-0.03 -0.0206,-0.0444 -0.007,-0.0144 -0.0149,-0.0277 -0.0228,-0.0422 -0.008,-0.0144 -0.0162,-0.0278 -0.0249,-0.0422 -0.009,-0.0133 -0.0175,-0.0266 -0.0268,-0.04 -0.009,-0.0133 -0.0189,-0.0266 -0.0288,-0.04 -0.01,-0.0122 -0.0201,-0.0255 -0.0305,-0.0377 -0.0105,-0.0122 -0.0213,-0.0255 -0.0324,-0.0366 -0.0111,-0.0122 -0.0225,-0.0244 -0.0342,-0.0366 -0.0117,-0.0111 -0.0237,-0.0233 -0.0359,-0.0344 -0.0123,-0.0111 -0.0248,-0.0222 -0.0375,-0.0333 -0.0128,-0.01 -0.0259,-0.0211 -0.0391,-0.0311 -0.0133,-0.0111 -0.0269,-0.0211 -0.0406,-0.0311 -0.0138,-0.009 -0.0277,-0.0189 -0.0421,-0.0289 -0.0142,-0.009 -0.0286,-0.0178 -0.0433,-0.0266 -0.0148,-0.01 -0.0296,-0.0178 -0.0447,-0.0266 -0.0151,-0.009 -0.0304,-0.0166 -0.046,-0.0244 -0.0154,-0.008 -0.0312,-0.0155 -0.0471,-0.0233 -0.0158,-0.008 -0.0319,-0.0144 -0.0481,-0.0211 -0.0162,-0.007 -0.0326,-0.0133 -0.0492,-0.02 -0.0165,-0.007 -0.0332,-0.0122 -0.0501,-0.0189 -0.0168,-0.006 -0.0337,-0.0111 -0.0508,-0.0167 -0.0171,-0.004 -0.0344,-0.01 -0.0517,-0.0144 -0.0173,-0.006 -0.0349,-0.01 -0.0524,-0.0133 -0.0175,-0.004 -0.0352,-0.009 -0.0529,-0.0122 -0.0178,-0.003 -0.0356,-0.007 -0.0535,-0.01 -0.0179,-0.003 -0.036,-0.007 -0.054,-0.009 -0.0181,-0.002 -0.0362,-0.004 -0.0544,-0.007 -0.0181,-0.002 -0.0363,-0.003 -0.0546,-0.004 -0.0182,-0.002 -0.0365,-0.003 -0.0548,-0.004 -0.0182,0 -0.0365,-0.001 -0.0549,-0.001 -0.0183,0 -0.0366,0 -0.055,0 -0.0183,0 -0.0366,0.001 -0.055,0.001 -0.0183,10e-4 -0.0365,0.002 -0.0548,0.004 -0.0182,0.001 -0.0364,0.002 -0.0546,0.004 -0.0181,0.002 -0.0363,0.004 -0.0543,0.007 -0.0181,0.002 -0.0361,0.006 -0.054,0.009 -0.018,0.003 -0.0358,0.007 -0.0535,0.01 -0.0178,0.003 -0.0354,0.008 -0.0531,0.0122 -0.0175,0.003 -0.035,0.008 -0.0523,0.0133 -0.0174,0.004 -0.0346,0.01 -0.0517,0.0144 -0.0171,0.006 -0.0341,0.0111 -0.051,0.0167 -0.0168,0.007 -0.0335,0.0122 -0.0501,0.0189 -0.0165,0.007 -0.0329,0.0133 -0.0491,0.02 -0.0162,0.007 -0.0323,0.0133 -0.0482,0.0211 -0.0159,0.008 -0.0315,0.0155 -0.0471,0.0233 -0.0154,0.008 -0.0308,0.0155 -0.0459,0.0244 -0.0151,0.009 -0.0301,0.0166 -0.0447,0.0266 -0.0147,0.009 -0.0292,0.0178 -0.0434,0.0266 -0.0142,0.01 -0.0282,0.02 -0.042,0.0289 -0.0138,0.01 -0.0273,0.02 -0.0406,0.0311 -0.0133,0.01 -0.0263,0.0211 -0.0391,0.0311 -0.0128,0.0111 -0.0253,0.0222 -0.0375,0.0333 -0.0122,0.0111 -0.0242,0.0233 -0.0359,0.0344 -0.0117,0.0122 -0.0231,0.0244 -0.0342,0.0366 -0.0111,0.0111 -0.0219,0.0244 -0.0324,0.0366 -0.0105,0.0122 -0.0208,0.0255 -0.0306,0.0377 -0.01,0.0133 -0.0194,0.0266 -0.0286,0.04 -0.009,0.0133 -0.0182,0.0266 -0.0269,0.04 -0.008,0.0144 -0.0169,0.0278 -0.0248,0.0422 -0.008,0.0144 -0.0155,0.0277 -0.0228,0.0422 -0.007,0.0144 -0.0141,0.0289 -0.0207,0.0444 -0.007,0.0144 -0.0128,0.0289 -0.0185,0.0444 -0.006,0.0155 -0.0113,0.03 -0.0164,0.0455 -0.005,0.0155 -0.01,0.0311 -0.0141,0.0466 -0.004,0.0155 -0.008,0.0311 -0.0119,0.0477 -0.004,0.0155 -0.007,0.0311 -0.01,0.0477 -0.003,0.0155 -0.005,0.0322 -0.007,0.0488 -0.002,0.0166 -0.004,0.0333 -0.005,0.0499 -0.001,0.0155 -0.002,0.0333 -0.002,0.05 -3.4e-4,0.0166 -3.4e-4,0.0333 1.1e-4,0.0499 4.4e-4,0.0178 0.001,0.0344 0.002,0.0522 10e-4,0.0166 0.003,0.0344 0.005,0.0511 0.002,0.0178 0.005,0.0355 0.008,0.0522 0.003,0.0178 0.006,0.0355 0.0101,0.0533 0.004,0.0178 0.008,0.0355 0.0125,0.0533 0.005,0.0167 0.01,0.0344 0.0152,0.0522 0.005,0.0178 0.0113,0.0366 0.0178,0.0544 0.006,0.0178 0.0131,0.0355 0.0203,0.0533 0.007,0.0178 0.0149,0.0355 0.023,0.0533 0.008,0.0189 0.0165,0.0366 0.0255,0.0544 0.009,0.0178 0.0183,0.0355 0.0281,0.0533 0.01,0.0189 0.0201,0.0366 0.0307,0.0544 0.0107,0.0178 0.0219,0.0355 0.0334,0.0533 0.0115,0.0178 0.0235,0.0355 0.0359,0.0533 0.0124,0.0189 0.0253,0.0366 0.0386,0.0544 0.0132,0.0178 0.027,0.0344 0.0411,0.0522 0.0141,0.0178 0.0286,0.0355 0.0436,0.0533 0.015,0.0178 0.0304,0.0355 0.0463,0.0522 0.0158,0.0178 0.0321,0.0355 0.0487,0.0522 0.0166,0.0178 0.0337,0.0344 0.0512,0.0522 0.0175,0.0166 0.0354,0.0333 0.0537,0.05 0.0183,0.0178 0.0371,0.0344 0.0562,0.0511 0.0192,0.0166 0.0387,0.0333 0.0586,0.05 0.02,0.0166 0.0403,0.0333 0.0611,0.0488 0.0208,0.0167 0.0418,0.0322 0.0634,0.0488 0.0215,0.0155 0.0434,0.0322 0.0657,0.0477 0.0222,0.0156 0.0448,0.0311 0.0679,0.0466 0.0231,0.0155 0.0464,0.0311 0.0703,0.0466 0.0238,0.0144 0.0478,0.03 0.0724,0.0444 0.0245,0.0155 0.0494,0.03 0.0746,0.0444 0.0252,0.0144 0.0508,0.0289 0.0767,0.0433 0.026,0.0144 0.0522,0.0289 0.0788,0.0422 0.0266,0.0144 0.0535,0.0278 0.0808,0.0411 0.0272,0.0133 0.0548,0.0266 0.0827,0.04 0.028,0.0133 0.0562,0.0267 0.0847,0.0389 0.0285,0.0133 0.0574,0.0255 0.0865,0.0377 0.0292,0.0122 0.0586,0.0244 0.0884,0.0366 0.0296,0.0111 0.0597,0.0233 0.09,0.0344 0.0302,0.0122 0.0608,0.0233 0.0917,0.0344 0.0308,0.0111 0.062,0.0211 0.0933,0.0322 0.0314,0.0111 0.0629,0.0211 0.0948,0.0311 0.0319,0.01 0.0641,0.02 0.0964,0.03 0.0323,0.009 0.0649,0.0189 0.0977,0.0278 0.0327,0.01 0.0658,0.0189 0.099,0.0266 0.0333,0.009 0.0667,0.0178 0.10035,0.0255 0.0336,0.009 0.0674,0.0166 0.10147,0.0244 0.034,0.008 0.0683,0.0144 0.10257,0.0222 0.0344,0.007 0.0689,0.0133 0.10369,0.02 0.0346,0.007 0.0696,0.0133 0.10457,0.02 0.0351,0.006 0.0702,0.0111 0.10546,0.0166 0.0353,0.006 0.0708,0.0111 0.10635,0.0167 0.0355,0.004 0.0713,0.009 0.10702,0.0144 0.0358,0.004 0.0717,0.008 0.10768,0.0122 0.036,0.003 0.0721,0.008 0.10824,0.0111 0.0362,0.003 0.0725,0.007 0.10879,0.009 0.0363,0.003 0.0727,0.006 0.10913,0.008 0.0364,0.002 0.0729,0.004 0.10945,0.006 0.0365,0.002 0.0732,0.003 0.1098,0.004 0.0365,0.001 0.0732,0.002 0.10989,0.003 0.0366,0 0.0733,0 0.109914,0"
       title="t/12+cos(t/4) sin(t/4)"
       id="path40" />
    <path
       style="fill:none;fill-opacity:1;stroke:#ffffff;stroke-width:0.74;stroke-linecap:round;stroke-dasharray:none;stroke-opacity:1"
       d="m 100.05468,141.68829 c 0.0367,0 0.0734,0 0.11001,0 0.0366,-0.001 0.0733,-0.002 0.10991,-0.003 0.0366,-0.001 0.0732,-0.002 0.10968,-0.004 0.0366,-10e-4 0.0731,-0.003 0.10956,-0.006 0.0364,-0.002 0.0728,-0.004 0.10914,-0.008 0.0363,-0.002 0.0726,-0.006 0.10868,-0.009 0.0362,-0.003 0.0723,-0.008 0.10835,-0.0111 0.036,-0.004 0.0718,-0.008 0.10768,-0.0122 0.0357,-0.006 0.0714,-0.01 0.10702,-0.0144 0.0355,-0.006 0.0709,-0.0111 0.10624,-0.0167 0.0353,-0.006 0.0705,-0.0111 0.10557,-0.0166 0.035,-0.007 0.0698,-0.0133 0.10457,-0.02 0.0348,-0.007 0.0693,-0.0133 0.10358,-0.02 0.0344,-0.008 0.0686,-0.0144 0.10268,-0.0222 0.034,-0.008 0.0678,-0.0155 0.10147,-0.0244 0.0336,-0.008 0.0671,-0.0166 0.10024,-0.0255 0.0333,-0.008 0.0663,-0.0166 0.0991,-0.0266 0.0328,-0.009 0.0653,-0.0189 0.0977,-0.0278 0.0323,-0.01 0.0644,-0.02 0.0962,-0.03 0.0319,-0.01 0.0635,-0.02 0.0949,-0.0311 0.0313,-0.0111 0.0624,-0.0211 0.0932,-0.0322 0.0309,-0.0111 0.0614,-0.0222 0.0917,-0.0344 0.0303,-0.0111 0.0603,-0.0233 0.09,-0.0344 0.0298,-0.0122 0.0592,-0.0244 0.0883,-0.0366 0.0292,-0.0122 0.0581,-0.0244 0.0866,-0.0377 0.0285,-0.0122 0.0567,-0.0255 0.0846,-0.0389 0.028,-0.0133 0.0555,-0.0266 0.0828,-0.04 0.0272,-0.0133 0.0542,-0.0266 0.0808,-0.0411 0.0265,-0.0133 0.0528,-0.0277 0.0787,-0.0422 0.026,-0.0144 0.0515,-0.0289 0.0767,-0.0433 0.0253,-0.0144 0.0502,-0.0289 0.0746,-0.0444 0.0245,-0.0144 0.0487,-0.03 0.0725,-0.0444 0.0238,-0.0155 0.0472,-0.0311 0.0703,-0.0466 0.023,-0.0155 0.0456,-0.0311 0.0679,-0.0466 0.0223,-0.0155 0.0442,-0.0322 0.0657,-0.0477 0.0215,-0.0166 0.0426,-0.0322 0.0634,-0.0488 0.0206,-0.0155 0.0411,-0.0322 0.0609,-0.0488 0.02,-0.0166 0.0395,-0.0333 0.0586,-0.05 0.0192,-0.0166 0.0379,-0.0333 0.0562,-0.0511 0.0183,-0.0166 0.0363,-0.0333 0.0537,-0.05 0.0175,-0.0178 0.0346,-0.0344 0.0513,-0.0522 0.0166,-0.0167 0.0329,-0.0344 0.0487,-0.0522 0.0159,-0.0166 0.0312,-0.0344 0.0462,-0.0522 0.015,-0.0178 0.0295,-0.0355 0.0437,-0.0533 0.0141,-0.0178 0.0277,-0.0344 0.0411,-0.0522 0.0133,-0.0178 0.0261,-0.0355 0.0385,-0.0544 0.0124,-0.0178 0.0244,-0.0355 0.036,-0.0533 0.0115,-0.0178 0.0226,-0.0355 0.0333,-0.0533 0.0108,-0.0178 0.021,-0.0355 0.0307,-0.0544 0.01,-0.0178 0.0192,-0.0355 0.0282,-0.0533 0.009,-0.0178 0.0174,-0.0355 0.0255,-0.0544 0.008,-0.0178 0.0158,-0.0355 0.023,-0.0533 0.007,-0.0178 0.014,-0.0355 0.0203,-0.0533 0.006,-0.0178 0.0122,-0.0366 0.0178,-0.0544 0.005,-0.0178 0.0106,-0.0355 0.0152,-0.0522 0.005,-0.0178 0.009,-0.0355 0.0125,-0.0533 0.004,-0.0178 0.007,-0.0355 0.0101,-0.0533 0.003,-0.0166 0.005,-0.0344 0.007,-0.0522 0.002,-0.0167 0.004,-0.0344 0.005,-0.0511 0.001,-0.0178 0.002,-0.0344 0.003,-0.0522 4.5e-4,-0.0166 4.5e-4,-0.0333 0,-0.0499 -3.3e-4,-0.0166 -10e-4,-0.0344 -0.002,-0.05 -0.001,-0.0166 -0.003,-0.0333 -0.005,-0.0499 -0.002,-0.0166 -0.004,-0.0333 -0.007,-0.0488 -0.003,-0.0166 -0.006,-0.0322 -0.009,-0.0477 -0.004,-0.0166 -0.008,-0.0322 -0.0119,-0.0477 -0.004,-0.0155 -0.009,-0.0311 -0.0141,-0.0466 -0.005,-0.0155 -0.0105,-0.03 -0.0163,-0.0455 -0.006,-0.0155 -0.012,-0.03 -0.0185,-0.0444 -0.007,-0.0156 -0.0134,-0.03 -0.0207,-0.0444 -0.007,-0.0144 -0.0149,-0.0277 -0.0228,-0.0422 -0.008,-0.0144 -0.0162,-0.0278 -0.0249,-0.0422 -0.008,-0.0133 -0.0175,-0.0266 -0.0268,-0.04 -0.009,-0.0133 -0.0189,-0.0266 -0.0288,-0.04 -0.01,-0.0122 -0.0201,-0.0255 -0.0305,-0.0377 -0.0105,-0.0122 -0.0213,-0.0255 -0.0324,-0.0366 -0.0111,-0.0122 -0.0225,-0.0244 -0.0342,-0.0366 -0.0117,-0.0111 -0.0237,-0.0233 -0.0359,-0.0344 -0.0123,-0.0111 -0.0247,-0.0222 -0.0375,-0.0333 -0.0128,-0.01 -0.0259,-0.0211 -0.0391,-0.0311 -0.0133,-0.0111 -0.0269,-0.0211 -0.0406,-0.0311 -0.0138,-0.009 -0.0277,-0.0189 -0.0421,-0.0289 -0.0142,-0.009 -0.0286,-0.0178 -0.0433,-0.0266 -0.0148,-0.01 -0.0296,-0.0178 -0.0447,-0.0266 -0.0151,-0.009 -0.0304,-0.0166 -0.046,-0.0244 -0.0154,-0.008 -0.0312,-0.0155 -0.0471,-0.0233 -0.0158,-0.008 -0.0319,-0.0144 -0.0481,-0.0211 -0.0162,-0.007 -0.0326,-0.0133 -0.0492,-0.02 -0.0165,-0.007 -0.0332,-0.0122 -0.0501,-0.0189 -0.0168,-0.006 -0.0337,-0.0111 -0.0508,-0.0167 -0.0171,-0.004 -0.0344,-0.01 -0.0517,-0.0144 -0.0173,-0.006 -0.0349,-0.01 -0.0524,-0.0133 -0.0175,-0.004 -0.0352,-0.009 -0.0529,-0.0122 -0.0178,-0.003 -0.0356,-0.007 -0.0535,-0.01 -0.0179,-0.003 -0.036,-0.007 -0.054,-0.009 -0.0181,-0.002 -0.0362,-0.004 -0.0544,-0.007 -0.0181,-0.002 -0.0363,-0.003 -0.0546,-0.004 -0.0182,-0.002 -0.0365,-0.003 -0.0548,-0.004 -0.0182,0 -0.0365,-0.001 -0.0549,-0.001 -0.0183,0 -0.0366,0 -0.055,0 -0.0183,0 -0.0366,0.001 -0.055,0.001 -0.0183,10e-4 -0.0365,0.002 -0.0548,0.004 -0.0182,0.001 -0.0364,0.002 -0.0545,0.004 -0.0181,0.002 -0.0363,0.004 -0.0543,0.007 -0.0181,0.002 -0.0361,0.006 -0.054,0.009 -0.018,0.003 -0.0357,0.007 -0.0535,0.01 -0.0178,0.003 -0.0354,0.008 -0.0531,0.0122 -0.0175,0.003 -0.035,0.008 -0.0523,0.0133 -0.0174,0.004 -0.0346,0.01 -0.0517,0.0144 -0.0171,0.006 -0.0341,0.0111 -0.051,0.0167 -0.0168,0.007 -0.0335,0.0122 -0.0501,0.0189 -0.0165,0.007 -0.0329,0.0133 -0.0491,0.02 -0.0162,0.007 -0.0323,0.0133 -0.0482,0.0211 -0.0159,0.008 -0.0315,0.0155 -0.0471,0.0233 -0.0154,0.008 -0.0307,0.0155 -0.0459,0.0244 -0.0151,0.009 -0.0301,0.0166 -0.0447,0.0266 -0.0146,0.009 -0.0292,0.0178 -0.0434,0.0266 -0.0142,0.01 -0.0282,0.02 -0.042,0.0289 -0.0138,0.01 -0.0273,0.02 -0.0406,0.0311 -0.0133,0.01 -0.0263,0.0211 -0.0391,0.0311 -0.0128,0.0111 -0.0253,0.0222 -0.0375,0.0333 -0.0122,0.0111 -0.0242,0.0233 -0.0359,0.0344 -0.0117,0.0122 -0.0231,0.0244 -0.0342,0.0366 -0.0111,0.0111 -0.0219,0.0244 -0.0324,0.0366 -0.0105,0.0122 -0.0208,0.0255 -0.0306,0.0377 -0.01,0.0133 -0.0194,0.0266 -0.0286,0.04 -0.009,0.0133 -0.0182,0.0266 -0.0269,0.04 -0.009,0.0144 -0.0169,0.0278 -0.0248,0.0422 -0.008,0.0144 -0.0155,0.0277 -0.0228,0.0422 -0.007,0.0144 -0.0141,0.0289 -0.0207,0.0444 -0.007,0.0144 -0.0128,0.0289 -0.0185,0.0444 -0.006,0.0155 -0.0113,0.03 -0.0164,0.0455 -0.005,0.0155 -0.01,0.0311 -0.0141,0.0466 -0.004,0.0155 -0.008,0.0311 -0.0119,0.0477 -0.004,0.0155 -0.007,0.0311 -0.009,0.0477 -0.003,0.0155 -0.005,0.0322 -0.007,0.0488 -0.002,0.0166 -0.004,0.0333 -0.005,0.0499 -10e-4,0.0155 -0.002,0.0333 -0.002,0.05 -3.3e-4,0.0166 -3.3e-4,0.0333 1.1e-4,0.0499 4.5e-4,0.0178 10e-4,0.0344 0.002,0.0522 0.001,0.0166 0.003,0.0344 0.005,0.0511 0.002,0.0178 0.005,0.0355 0.008,0.0522 0.003,0.0178 0.006,0.0355 0.0101,0.0533 0.004,0.0178 0.008,0.0355 0.0125,0.0533 0.005,0.0167 0.01,0.0344 0.0152,0.0522 0.005,0.0178 0.0113,0.0366 0.0178,0.0544 0.006,0.0178 0.0131,0.0355 0.0203,0.0533 0.007,0.0178 0.0149,0.0355 0.023,0.0533 0.008,0.0189 0.0165,0.0366 0.0255,0.0544 0.009,0.0178 0.0183,0.0355 0.0281,0.0533 0.01,0.0189 0.0201,0.0366 0.0307,0.0544 0.0107,0.0178 0.0219,0.0355 0.0334,0.0533 0.0115,0.0178 0.0235,0.0355 0.0359,0.0533 0.0124,0.0189 0.0253,0.0366 0.0386,0.0544 0.0132,0.0178 0.027,0.0344 0.0411,0.0522 0.0141,0.0178 0.0286,0.0355 0.0436,0.0533 0.015,0.0178 0.0304,0.0355 0.0463,0.0522 0.0158,0.0178 0.0321,0.0355 0.0487,0.0522 0.0166,0.0178 0.0337,0.0344 0.0512,0.0522 0.0175,0.0166 0.0354,0.0333 0.0537,0.05 0.0183,0.0178 0.0371,0.0344 0.0562,0.0511 0.0192,0.0166 0.0387,0.0333 0.0586,0.05 0.02,0.0166 0.0403,0.0333 0.0611,0.0488 0.0208,0.0167 0.0418,0.0322 0.0634,0.0488 0.0215,0.0155 0.0434,0.0322 0.0657,0.0477 0.0222,0.0156 0.0448,0.0311 0.0679,0.0466 0.0231,0.0155 0.0464,0.0311 0.0703,0.0466 0.0238,0.0144 0.0478,0.03 0.0724,0.0444 0.0245,0.0155 0.0494,0.03 0.0746,0.0444 0.0252,0.0144 0.0508,0.0289 0.0767,0.0433 0.026,0.0144 0.0522,0.0289 0.0788,0.0422 0.0266,0.0144 0.0535,0.0278 0.0808,0.0411 0.0272,0.0133 0.0548,0.0266 0.0827,0.04 0.028,0.0133 0.0562,0.0267 0.0847,0.0389 0.0285,0.0133 0.0574,0.0255 0.0865,0.0377 0.0292,0.0122 0.0586,0.0244 0.0884,0.0366 0.0296,0.0111 0.0597,0.0233 0.09,0.0344 0.0302,0.0122 0.0608,0.0233 0.0917,0.0344 0.0308,0.0111 0.0619,0.0211 0.0933,0.0322 0.0314,0.0111 0.0629,0.0211 0.0948,0.0311 0.0319,0.01 0.064,0.02 0.0964,0.03 0.0323,0.009 0.0649,0.0189 0.0977,0.0278 0.0327,0.01 0.0658,0.0189 0.099,0.0266 0.0333,0.009 0.0667,0.0178 0.10036,0.0255 0.0336,0.009 0.0674,0.0166 0.10146,0.0244 0.034,0.008 0.0683,0.0144 0.10259,0.0222 0.0344,0.007 0.0689,0.0133 0.10367,0.02 0.0346,0.007 0.0696,0.0133 0.10458,0.02 0.0351,0.006 0.0702,0.0111 0.10546,0.0166 0.0353,0.006 0.0708,0.0111 0.10635,0.0167 0.0355,0.004 0.0713,0.009 0.10701,0.0144 0.0358,0.004 0.0717,0.008 0.1077,0.0122 0.036,0.003 0.072,0.008 0.10823,0.0111 0.0362,0.003 0.0725,0.007 0.1088,0.009 0.0363,0.003 0.0727,0.006 0.10912,0.008 0.0364,0.002 0.0729,0.004 0.10946,0.006 0.0365,0.002 0.0732,0.003 0.10979,0.004 0.0365,0.001 0.0732,0.002 0.1099,0.003 0.0366,0 0.0733,0 0.1099,0"
       title="t/12+cos(t/4) sin(t/4)"
       id="path41" />
    <path
       style="fill:none;fill-opacity:1;stroke:#ffffff;stroke-width:0.74;stroke-linecap:round;stroke-dasharray:none;stroke-opacity:1"
       d="m 104.86757,141.68829 c 0.0367,0 0.0734,0 0.11001,0 0.0366,-0.001 0.0733,-0.002 0.10991,-0.003 0.0366,-0.001 0.0732,-0.002 0.10968,-0.004 0.0366,-10e-4 0.073,-0.003 0.10956,-0.006 0.0364,-0.002 0.0728,-0.004 0.10913,-0.008 0.0363,-0.002 0.0726,-0.006 0.10868,-0.009 0.0362,-0.003 0.0723,-0.008 0.10835,-0.0111 0.036,-0.004 0.0718,-0.008 0.10768,-0.0122 0.0358,-0.006 0.0714,-0.01 0.10702,-0.0144 0.0355,-0.006 0.0709,-0.0111 0.10624,-0.0167 0.0353,-0.006 0.0705,-0.0111 0.10556,-0.0166 0.035,-0.007 0.0698,-0.0133 0.10458,-0.02 0.0348,-0.007 0.0693,-0.0133 0.10357,-0.02 0.0344,-0.008 0.0686,-0.0144 0.10269,-0.0222 0.034,-0.008 0.0678,-0.0155 0.10146,-0.0244 0.0336,-0.008 0.0671,-0.0166 0.10025,-0.0255 0.0333,-0.008 0.0663,-0.0166 0.0991,-0.0266 0.0327,-0.009 0.0653,-0.0189 0.0977,-0.0278 0.0323,-0.01 0.0644,-0.02 0.0962,-0.03 0.0319,-0.01 0.0635,-0.02 0.0949,-0.0311 0.0313,-0.0111 0.0624,-0.0211 0.0932,-0.0322 0.0309,-0.0111 0.0614,-0.0222 0.0917,-0.0344 0.0303,-0.0111 0.0603,-0.0233 0.09,-0.0344 0.0297,-0.0122 0.0592,-0.0244 0.0883,-0.0366 0.0292,-0.0122 0.0581,-0.0244 0.0866,-0.0377 0.0285,-0.0122 0.0567,-0.0255 0.0846,-0.0389 0.028,-0.0133 0.0555,-0.0266 0.0828,-0.04 0.0272,-0.0133 0.0542,-0.0266 0.0808,-0.0411 0.0265,-0.0133 0.0528,-0.0277 0.0787,-0.0422 0.026,-0.0144 0.0515,-0.0289 0.0767,-0.0433 0.0253,-0.0144 0.0502,-0.0289 0.0746,-0.0444 0.0245,-0.0144 0.0487,-0.03 0.0725,-0.0444 0.0238,-0.0155 0.0472,-0.0311 0.0703,-0.0466 0.023,-0.0155 0.0456,-0.0311 0.0679,-0.0466 0.0223,-0.0155 0.0442,-0.0322 0.0657,-0.0477 0.0215,-0.0166 0.0426,-0.0322 0.0634,-0.0488 0.0206,-0.0155 0.0411,-0.0322 0.0609,-0.0488 0.02,-0.0166 0.0395,-0.0333 0.0586,-0.05 0.0192,-0.0166 0.0378,-0.0333 0.0562,-0.0511 0.0183,-0.0166 0.0363,-0.0333 0.0537,-0.05 0.0175,-0.0178 0.0346,-0.0344 0.0513,-0.0522 0.0167,-0.0167 0.0329,-0.0344 0.0487,-0.0522 0.0159,-0.0166 0.0312,-0.0344 0.0462,-0.0522 0.015,-0.0178 0.0295,-0.0355 0.0437,-0.0533 0.0141,-0.0178 0.0278,-0.0344 0.0411,-0.0522 0.0133,-0.0178 0.0261,-0.0355 0.0385,-0.0544 0.0124,-0.0178 0.0244,-0.0355 0.036,-0.0533 0.0115,-0.0178 0.0226,-0.0355 0.0333,-0.0533 0.0108,-0.0178 0.021,-0.0355 0.0308,-0.0544 0.01,-0.0178 0.0192,-0.0355 0.0282,-0.0533 0.009,-0.0178 0.0174,-0.0355 0.0255,-0.0544 0.008,-0.0178 0.0158,-0.0355 0.023,-0.0533 0.007,-0.0178 0.014,-0.0355 0.0203,-0.0533 0.006,-0.0178 0.0122,-0.0366 0.0178,-0.0544 0.005,-0.0178 0.0105,-0.0355 0.0152,-0.0522 0.005,-0.0178 0.009,-0.0355 0.0125,-0.0533 0.004,-0.0178 0.007,-0.0355 0.0101,-0.0533 0.003,-0.0166 0.005,-0.0344 0.007,-0.0522 0.002,-0.0167 0.004,-0.0344 0.005,-0.0511 10e-4,-0.0178 0.002,-0.0344 0.003,-0.0522 4.4e-4,-0.0166 4.4e-4,-0.0333 0,-0.0499 -3.3e-4,-0.0166 -0.001,-0.0344 -0.002,-0.05 -10e-4,-0.0166 -0.003,-0.0333 -0.005,-0.0499 -0.002,-0.0166 -0.004,-0.0333 -0.007,-0.0488 -0.003,-0.0166 -0.006,-0.0322 -0.01,-0.0477 -0.004,-0.0166 -0.007,-0.0322 -0.0119,-0.0477 -0.004,-0.0155 -0.009,-0.0311 -0.0141,-0.0466 -0.005,-0.0155 -0.0106,-0.03 -0.0163,-0.0455 -0.006,-0.0155 -0.012,-0.03 -0.0185,-0.0444 -0.007,-0.0156 -0.0134,-0.03 -0.0207,-0.0444 -0.007,-0.0144 -0.0149,-0.0277 -0.0228,-0.0422 -0.008,-0.0144 -0.0162,-0.0278 -0.0249,-0.0422 -0.008,-0.0133 -0.0175,-0.0266 -0.0267,-0.04 -0.009,-0.0133 -0.0189,-0.0266 -0.0288,-0.04 -0.01,-0.0122 -0.0201,-0.0255 -0.0305,-0.0377 -0.0106,-0.0122 -0.0213,-0.0255 -0.0324,-0.0366 -0.0111,-0.0122 -0.0225,-0.0244 -0.0342,-0.0366 -0.0117,-0.0111 -0.0236,-0.0233 -0.0359,-0.0344 -0.0123,-0.0111 -0.0248,-0.0222 -0.0375,-0.0333 -0.0128,-0.01 -0.0259,-0.0211 -0.0391,-0.0311 -0.0133,-0.0111 -0.0269,-0.0211 -0.0406,-0.0311 -0.0138,-0.009 -0.0277,-0.0189 -0.0421,-0.0289 -0.0142,-0.009 -0.0286,-0.0178 -0.0433,-0.0266 -0.0148,-0.01 -0.0296,-0.0178 -0.0447,-0.0266 -0.0151,-0.009 -0.0304,-0.0166 -0.046,-0.0244 -0.0154,-0.008 -0.0312,-0.0155 -0.0471,-0.0233 -0.0158,-0.008 -0.0319,-0.0144 -0.0481,-0.0211 -0.0162,-0.007 -0.0326,-0.0133 -0.0492,-0.02 -0.0165,-0.007 -0.0332,-0.0122 -0.0501,-0.0189 -0.0168,-0.006 -0.0338,-0.0111 -0.0508,-0.0167 -0.0171,-0.004 -0.0344,-0.01 -0.0517,-0.0144 -0.0173,-0.006 -0.0349,-0.01 -0.0524,-0.0133 -0.0175,-0.004 -0.0352,-0.009 -0.0529,-0.0122 -0.0178,-0.003 -0.0356,-0.007 -0.0535,-0.01 -0.0179,-0.003 -0.036,-0.007 -0.054,-0.009 -0.0181,-0.002 -0.0362,-0.004 -0.0544,-0.007 -0.0181,-0.002 -0.0363,-0.003 -0.0546,-0.004 -0.0182,-0.002 -0.0365,-0.003 -0.0548,-0.004 -0.0182,0 -0.0365,-0.001 -0.055,-0.001 -0.0183,0 -0.0366,0 -0.0549,0 -0.0183,0 -0.0366,0.001 -0.055,0.001 -0.0183,10e-4 -0.0365,0.002 -0.0548,0.004 -0.0182,0.001 -0.0364,0.002 -0.0546,0.004 -0.0181,0.002 -0.0363,0.004 -0.0543,0.007 -0.0181,0.002 -0.0361,0.006 -0.054,0.009 -0.018,0.003 -0.0357,0.007 -0.0535,0.01 -0.0178,0.003 -0.0354,0.008 -0.0531,0.0122 -0.0175,0.003 -0.035,0.008 -0.0523,0.0133 -0.0174,0.004 -0.0346,0.01 -0.0517,0.0144 -0.0171,0.006 -0.0341,0.0111 -0.051,0.0167 -0.0168,0.007 -0.0335,0.0122 -0.0501,0.0189 -0.0165,0.007 -0.0329,0.0133 -0.0491,0.02 -0.0162,0.007 -0.0323,0.0133 -0.0482,0.0211 -0.0159,0.008 -0.0315,0.0155 -0.0471,0.0233 -0.0154,0.008 -0.0307,0.0155 -0.0459,0.0244 -0.0151,0.009 -0.0301,0.0166 -0.0447,0.0266 -0.0147,0.009 -0.0292,0.0178 -0.0434,0.0266 -0.0142,0.01 -0.0282,0.02 -0.042,0.0289 -0.0138,0.01 -0.0273,0.02 -0.0406,0.0311 -0.0133,0.01 -0.0263,0.0211 -0.0391,0.0311 -0.0128,0.0111 -0.0253,0.0222 -0.0375,0.0333 -0.0122,0.0111 -0.0242,0.0233 -0.0359,0.0344 -0.0117,0.0122 -0.0231,0.0244 -0.0342,0.0366 -0.0111,0.0111 -0.0219,0.0244 -0.0324,0.0366 -0.0106,0.0122 -0.0208,0.0255 -0.0306,0.0377 -0.01,0.0133 -0.0194,0.0266 -0.0286,0.04 -0.009,0.0133 -0.0182,0.0266 -0.0269,0.04 -0.008,0.0144 -0.0169,0.0278 -0.0248,0.0422 -0.008,0.0144 -0.0155,0.0277 -0.0228,0.0422 -0.007,0.0144 -0.0141,0.0289 -0.0206,0.0444 -0.007,0.0144 -0.0128,0.0289 -0.0185,0.0444 -0.006,0.0155 -0.0113,0.03 -0.0164,0.0455 -0.005,0.0155 -0.01,0.0311 -0.0141,0.0466 -0.004,0.0155 -0.008,0.0311 -0.0119,0.0477 -0.004,0.0155 -0.007,0.0311 -0.01,0.0477 -0.003,0.0155 -0.005,0.0322 -0.007,0.0488 -0.002,0.0166 -0.004,0.0333 -0.005,0.0499 -10e-4,0.0155 -0.002,0.0333 -0.002,0.05 -3.4e-4,0.0166 -3.4e-4,0.0333 1.1e-4,0.0499 4.4e-4,0.0178 0.001,0.0344 0.002,0.0522 10e-4,0.0166 0.003,0.0344 0.005,0.0511 0.002,0.0178 0.005,0.0355 0.008,0.0522 0.003,0.0178 0.006,0.0355 0.0101,0.0533 0.004,0.0178 0.008,0.0355 0.0125,0.0533 0.005,0.0167 0.01,0.0344 0.0152,0.0522 0.005,0.0178 0.0113,0.0366 0.0178,0.0544 0.006,0.0178 0.0131,0.0355 0.0203,0.0533 0.007,0.0178 0.0149,0.0355 0.023,0.0533 0.008,0.0189 0.0165,0.0366 0.0255,0.0544 0.009,0.0178 0.0183,0.0355 0.0281,0.0533 0.01,0.0189 0.0201,0.0366 0.0307,0.0544 0.0107,0.0178 0.0219,0.0355 0.0334,0.0533 0.0115,0.0178 0.0235,0.0355 0.0359,0.0533 0.0124,0.0189 0.0253,0.0366 0.0386,0.0544 0.0132,0.0178 0.027,0.0344 0.0411,0.0522 0.0141,0.0178 0.0286,0.0355 0.0436,0.0533 0.015,0.0178 0.0304,0.0355 0.0463,0.0522 0.0158,0.0178 0.0321,0.0355 0.0487,0.0522 0.0166,0.0178 0.0337,0.0344 0.0512,0.0522 0.0175,0.0166 0.0354,0.0333 0.0537,0.05 0.0183,0.0178 0.0371,0.0344 0.0562,0.0511 0.0192,0.0166 0.0387,0.0333 0.0586,0.05 0.02,0.0166 0.0403,0.0333 0.0611,0.0488 0.0208,0.0167 0.0418,0.0322 0.0634,0.0488 0.0215,0.0155 0.0434,0.0322 0.0657,0.0477 0.0222,0.0156 0.0448,0.0311 0.0679,0.0466 0.0231,0.0155 0.0464,0.0311 0.0703,0.0466 0.0238,0.0144 0.0478,0.03 0.0724,0.0444 0.0245,0.0155 0.0494,0.03 0.0746,0.0444 0.0252,0.0144 0.0508,0.0289 0.0767,0.0433 0.026,0.0144 0.0522,0.0289 0.0788,0.0422 0.0266,0.0144 0.0535,0.0278 0.0808,0.0411 0.0272,0.0133 0.0548,0.0266 0.0827,0.04 0.028,0.0133 0.0562,0.0267 0.0847,0.0389 0.0285,0.0133 0.0574,0.0255 0.0865,0.0377 0.0292,0.0122 0.0586,0.0244 0.0884,0.0366 0.0296,0.0111 0.0597,0.0233 0.09,0.0344 0.0302,0.0122 0.0608,0.0233 0.0917,0.0344 0.0307,0.0111 0.0619,0.0211 0.0932,0.0322 0.0314,0.0111 0.0629,0.0211 0.0948,0.0311 0.0319,0.01 0.064,0.02 0.0964,0.03 0.0323,0.009 0.0649,0.0189 0.0977,0.0278 0.0328,0.01 0.0658,0.0189 0.099,0.0266 0.0333,0.009 0.0667,0.0178 0.10035,0.0255 0.0336,0.009 0.0674,0.0166 0.10148,0.0244 0.034,0.008 0.0683,0.0144 0.10258,0.0222 0.0344,0.007 0.0689,0.0133 0.10368,0.02 0.0346,0.007 0.0696,0.0133 0.10456,0.02 0.0351,0.006 0.0702,0.0111 0.10547,0.0166 0.0353,0.006 0.0708,0.0111 0.10635,0.0167 0.0355,0.004 0.0713,0.009 0.10702,0.0144 0.0357,0.004 0.0717,0.008 0.10768,0.0122 0.036,0.003 0.072,0.008 0.10823,0.0111 0.0362,0.003 0.0725,0.007 0.10879,0.009 0.0363,0.003 0.0727,0.006 0.10913,0.008 0.0364,0.002 0.0729,0.004 0.10946,0.006 0.0365,0.002 0.0732,0.003 0.10979,0.004 0.0365,0.001 0.0732,0.002 0.1099,0.003 0.0366,0 0.0733,0 0.1099,0"
       title="t/12+cos(t/4) sin(t/4)"
       id="path42" />
    <path
       style="fill:none;fill-opacity:1;stroke:#ffffff;stroke-width:0.74;stroke-linecap:round;stroke-dasharray:none;stroke-opacity:1"
       d="m 110.38862,141.68829 c 0.0367,0 0.0734,0 0.11001,0 0.0366,-0.001 0.0733,-0.002 0.1099,-0.003 0.0366,-0.001 0.0732,-0.002 0.10968,-0.004 0.0366,-10e-4 0.073,-0.003 0.10957,-0.006 0.0364,-0.002 0.0728,-0.004 0.10913,-0.008 0.0363,-0.002 0.0726,-0.006 0.10868,-0.009 0.0362,-0.003 0.0723,-0.008 0.10835,-0.0111 0.036,-0.004 0.0718,-0.008 0.10768,-0.0122 0.0358,-0.006 0.0714,-0.01 0.10701,-0.0144 0.0355,-0.006 0.0709,-0.0111 0.10624,-0.0167 0.0353,-0.006 0.0705,-0.0111 0.10557,-0.0166 0.035,-0.007 0.0698,-0.0133 0.10458,-0.02 0.0348,-0.007 0.0693,-0.0133 0.10357,-0.02 0.0344,-0.008 0.0686,-0.0144 0.10269,-0.0222 0.034,-0.008 0.0678,-0.0155 0.10146,-0.0244 0.0336,-0.008 0.067,-0.0166 0.10025,-0.0255 0.0333,-0.008 0.0663,-0.0166 0.0991,-0.0266 0.0327,-0.009 0.0653,-0.0189 0.0977,-0.0278 0.0323,-0.01 0.0644,-0.02 0.0962,-0.03 0.0319,-0.01 0.0635,-0.02 0.0949,-0.0311 0.0313,-0.0111 0.0624,-0.0211 0.0932,-0.0322 0.0309,-0.0111 0.0614,-0.0222 0.0917,-0.0344 0.0303,-0.0111 0.0603,-0.0233 0.09,-0.0344 0.0297,-0.0122 0.0592,-0.0244 0.0883,-0.0366 0.0292,-0.0122 0.0581,-0.0244 0.0866,-0.0377 0.0285,-0.0122 0.0567,-0.0255 0.0846,-0.0389 0.028,-0.0133 0.0555,-0.0266 0.0828,-0.04 0.0272,-0.0133 0.0542,-0.0266 0.0808,-0.0411 0.0265,-0.0133 0.0528,-0.0277 0.0787,-0.0422 0.026,-0.0144 0.0515,-0.0289 0.0767,-0.0433 0.0253,-0.0144 0.0502,-0.0289 0.0746,-0.0444 0.0245,-0.0144 0.0487,-0.03 0.0725,-0.0444 0.0238,-0.0155 0.0472,-0.0311 0.0703,-0.0466 0.023,-0.0155 0.0456,-0.0311 0.0679,-0.0466 0.0223,-0.0155 0.0442,-0.0322 0.0657,-0.0477 0.0215,-0.0166 0.0426,-0.0322 0.0634,-0.0488 0.0207,-0.0155 0.0411,-0.0322 0.061,-0.0488 0.02,-0.0166 0.0395,-0.0333 0.0586,-0.05 0.0192,-0.0166 0.0379,-0.0333 0.0562,-0.0511 0.0183,-0.0166 0.0363,-0.0333 0.0537,-0.05 0.0175,-0.0178 0.0346,-0.0344 0.0513,-0.0522 0.0166,-0.0167 0.0329,-0.0344 0.0487,-0.0522 0.0159,-0.0166 0.0312,-0.0344 0.0462,-0.0522 0.015,-0.0178 0.0295,-0.0355 0.0437,-0.0533 0.0141,-0.0178 0.0277,-0.0344 0.0411,-0.0522 0.0133,-0.0178 0.0261,-0.0355 0.0385,-0.0544 0.0124,-0.0178 0.0244,-0.0355 0.036,-0.0533 0.0115,-0.0178 0.0227,-0.0355 0.0333,-0.0533 0.0108,-0.0178 0.021,-0.0355 0.0307,-0.0544 0.01,-0.0178 0.0192,-0.0355 0.0282,-0.0533 0.009,-0.0178 0.0174,-0.0355 0.0255,-0.0544 0.008,-0.0178 0.0158,-0.0355 0.023,-0.0533 0.007,-0.0178 0.014,-0.0355 0.0203,-0.0533 0.006,-0.0178 0.0122,-0.0366 0.0178,-0.0544 0.005,-0.0178 0.0105,-0.0355 0.0152,-0.0522 0.005,-0.0178 0.009,-0.0355 0.0125,-0.0533 0.004,-0.0178 0.007,-0.0355 0.0101,-0.0533 0.003,-0.0166 0.005,-0.0344 0.007,-0.0522 0.002,-0.0167 0.004,-0.0344 0.005,-0.0511 0.001,-0.0178 0.002,-0.0344 0.003,-0.0522 4.4e-4,-0.0166 4.4e-4,-0.0333 0,-0.0499 -3.3e-4,-0.0166 -10e-4,-0.0344 -0.002,-0.05 -0.001,-0.0166 -0.003,-0.0333 -0.005,-0.0499 -0.002,-0.0166 -0.004,-0.0333 -0.007,-0.0488 -0.003,-0.0166 -0.006,-0.0322 -0.009,-0.0477 -0.004,-0.0166 -0.008,-0.0322 -0.0119,-0.0477 -0.004,-0.0155 -0.009,-0.0311 -0.0141,-0.0466 -0.005,-0.0155 -0.0106,-0.03 -0.0163,-0.0455 -0.006,-0.0155 -0.012,-0.03 -0.0185,-0.0444 -0.006,-0.0156 -0.0134,-0.03 -0.0206,-0.0444 -0.007,-0.0144 -0.0149,-0.0277 -0.0228,-0.0422 -0.008,-0.0144 -0.0162,-0.0278 -0.0249,-0.0422 -0.009,-0.0133 -0.0175,-0.0266 -0.0268,-0.04 -0.009,-0.0133 -0.0189,-0.0266 -0.0288,-0.04 -0.01,-0.0122 -0.0201,-0.0255 -0.0305,-0.0377 -0.0105,-0.0122 -0.0213,-0.0255 -0.0324,-0.0366 -0.0111,-0.0122 -0.0225,-0.0244 -0.0342,-0.0366 -0.0117,-0.0111 -0.0237,-0.0233 -0.0359,-0.0344 -0.0123,-0.0111 -0.0248,-0.0222 -0.0375,-0.0333 -0.0128,-0.01 -0.0259,-0.0211 -0.0391,-0.0311 -0.0133,-0.0111 -0.0269,-0.0211 -0.0406,-0.0311 -0.0138,-0.009 -0.0277,-0.0189 -0.0421,-0.0289 -0.0142,-0.009 -0.0286,-0.0178 -0.0433,-0.0266 -0.0148,-0.01 -0.0296,-0.0178 -0.0447,-0.0266 -0.0151,-0.009 -0.0304,-0.0166 -0.046,-0.0244 -0.0154,-0.008 -0.0312,-0.0155 -0.0471,-0.0233 -0.0158,-0.008 -0.0319,-0.0144 -0.0481,-0.0211 -0.0162,-0.007 -0.0326,-0.0133 -0.0492,-0.02 -0.0165,-0.007 -0.0332,-0.0122 -0.0501,-0.0189 -0.0168,-0.006 -0.0337,-0.0111 -0.0508,-0.0167 -0.0171,-0.004 -0.0344,-0.01 -0.0517,-0.0144 -0.0173,-0.006 -0.0349,-0.01 -0.0524,-0.0133 -0.0175,-0.004 -0.0352,-0.009 -0.0529,-0.0122 -0.0178,-0.003 -0.0356,-0.007 -0.0535,-0.01 -0.0179,-0.003 -0.036,-0.007 -0.054,-0.009 -0.0181,-0.002 -0.0362,-0.004 -0.0544,-0.007 -0.0181,-0.002 -0.0363,-0.003 -0.0546,-0.004 -0.0182,-0.002 -0.0365,-0.003 -0.0548,-0.004 -0.0182,0 -0.0365,-0.001 -0.0549,-0.001 -0.0183,0 -0.0366,0 -0.055,0 -0.0183,0 -0.0366,0.001 -0.055,0.001 -0.0183,10e-4 -0.0365,0.002 -0.0548,0.004 -0.0182,0.001 -0.0364,0.002 -0.0546,0.004 -0.0181,0.002 -0.0363,0.004 -0.0543,0.007 -0.0181,0.002 -0.0361,0.006 -0.054,0.009 -0.018,0.003 -0.0358,0.007 -0.0535,0.01 -0.0178,0.003 -0.0354,0.008 -0.0531,0.0122 -0.0175,0.003 -0.035,0.008 -0.0523,0.0133 -0.0174,0.004 -0.0346,0.01 -0.0517,0.0144 -0.0171,0.006 -0.0341,0.0111 -0.051,0.0167 -0.0168,0.007 -0.0335,0.0122 -0.0501,0.0189 -0.0165,0.007 -0.0329,0.0133 -0.0491,0.02 -0.0162,0.007 -0.0323,0.0133 -0.0482,0.0211 -0.0159,0.008 -0.0315,0.0155 -0.0471,0.0233 -0.0154,0.008 -0.0307,0.0155 -0.0458,0.0244 -0.0151,0.009 -0.0301,0.0166 -0.0447,0.0266 -0.0147,0.009 -0.0292,0.0178 -0.0434,0.0266 -0.0142,0.01 -0.0282,0.02 -0.042,0.0289 -0.0138,0.01 -0.0273,0.02 -0.0406,0.0311 -0.0133,0.01 -0.0263,0.0211 -0.0391,0.0311 -0.0128,0.0111 -0.0253,0.0222 -0.0375,0.0333 -0.0122,0.0111 -0.0242,0.0233 -0.0359,0.0344 -0.0117,0.0122 -0.0231,0.0244 -0.0342,0.0366 -0.0111,0.0111 -0.0219,0.0244 -0.0324,0.0366 -0.0105,0.0122 -0.0208,0.0255 -0.0306,0.0377 -0.01,0.0133 -0.0194,0.0266 -0.0286,0.04 -0.009,0.0133 -0.0182,0.0266 -0.0269,0.04 -0.008,0.0144 -0.0169,0.0278 -0.0248,0.0422 -0.008,0.0144 -0.0155,0.0277 -0.0228,0.0422 -0.007,0.0144 -0.0141,0.0289 -0.0207,0.0444 -0.007,0.0144 -0.0128,0.0289 -0.0185,0.0444 -0.006,0.0155 -0.0113,0.03 -0.0164,0.0455 -0.005,0.0155 -0.01,0.0311 -0.0141,0.0466 -0.004,0.0155 -0.008,0.0311 -0.0119,0.0477 -0.004,0.0155 -0.007,0.0311 -0.01,0.0477 -0.003,0.0155 -0.005,0.0322 -0.007,0.0488 -0.002,0.0166 -0.004,0.0333 -0.005,0.0499 -0.001,0.0155 -0.002,0.0333 -0.002,0.05 -3.3e-4,0.0166 -3.3e-4,0.0333 1.1e-4,0.0499 4.4e-4,0.0178 0.001,0.0344 0.002,0.0522 0.001,0.0166 0.003,0.0344 0.005,0.0511 0.002,0.0178 0.005,0.0355 0.008,0.0522 0.003,0.0178 0.006,0.0355 0.0101,0.0533 0.004,0.0178 0.008,0.0355 0.0125,0.0533 0.005,0.0167 0.01,0.0344 0.0152,0.0522 0.005,0.0178 0.0113,0.0366 0.0178,0.0544 0.006,0.0178 0.0131,0.0355 0.0203,0.0533 0.007,0.0178 0.0149,0.0355 0.023,0.0533 0.008,0.0189 0.0165,0.0366 0.0255,0.0544 0.009,0.0178 0.0183,0.0355 0.0281,0.0533 0.01,0.0189 0.0201,0.0366 0.0307,0.0544 0.0107,0.0178 0.0219,0.0355 0.0334,0.0533 0.0115,0.0178 0.0235,0.0355 0.0359,0.0533 0.0124,0.0189 0.0253,0.0366 0.0386,0.0544 0.0132,0.0178 0.027,0.0344 0.0411,0.0522 0.0141,0.0178 0.0286,0.0355 0.0436,0.0533 0.015,0.0178 0.0304,0.0355 0.0463,0.0522 0.0158,0.0178 0.0321,0.0355 0.0487,0.0522 0.0166,0.0178 0.0337,0.0344 0.0512,0.0522 0.0175,0.0166 0.0354,0.0333 0.0537,0.05 0.0183,0.0178 0.0371,0.0344 0.0562,0.0511 0.0192,0.0166 0.0387,0.0333 0.0586,0.05 0.02,0.0166 0.0403,0.0333 0.0611,0.0488 0.0208,0.0167 0.0418,0.0322 0.0634,0.0488 0.0215,0.0155 0.0434,0.0322 0.0657,0.0477 0.0222,0.0156 0.0448,0.0311 0.0679,0.0466 0.0231,0.0155 0.0464,0.0311 0.0703,0.0466 0.0238,0.0144 0.0478,0.03 0.0724,0.0444 0.0245,0.0155 0.0494,0.03 0.0746,0.0444 0.0252,0.0144 0.0508,0.0289 0.0767,0.0433 0.026,0.0144 0.0522,0.0289 0.0788,0.0422 0.0266,0.0144 0.0535,0.0278 0.0808,0.0411 0.0272,0.0133 0.0548,0.0266 0.0827,0.04 0.028,0.0133 0.0562,0.0267 0.0847,0.0389 0.0285,0.0133 0.0574,0.0255 0.0865,0.0377 0.0292,0.0122 0.0586,0.0244 0.0884,0.0366 0.0296,0.0111 0.0597,0.0233 0.09,0.0344 0.0302,0.0122 0.0608,0.0233 0.0917,0.0344 0.0308,0.0111 0.062,0.0211 0.0933,0.0322 0.0314,0.0111 0.0629,0.0211 0.0948,0.0311 0.0319,0.01 0.0641,0.02 0.0964,0.03 0.0323,0.009 0.0649,0.0189 0.0977,0.0278 0.0327,0.01 0.0658,0.0189 0.099,0.0266 0.0333,0.009 0.0667,0.0178 0.10036,0.0255 0.0336,0.009 0.0674,0.0166 0.10147,0.0244 0.034,0.008 0.0683,0.0144 0.10258,0.0222 0.0344,0.007 0.0689,0.0133 0.10368,0.02 0.0346,0.007 0.0696,0.0133 0.10457,0.02 0.0351,0.006 0.0702,0.0111 0.10547,0.0166 0.0353,0.006 0.0708,0.0111 0.10635,0.0167 0.0355,0.004 0.0713,0.009 0.10701,0.0144 0.0358,0.004 0.0717,0.008 0.10768,0.0122 0.036,0.003 0.0721,0.008 0.10824,0.0111 0.0362,0.003 0.0725,0.007 0.10879,0.009 0.0363,0.003 0.0727,0.006 0.10913,0.008 0.0364,0.002 0.0729,0.004 0.10946,0.006 0.0365,0.002 0.0732,0.003 0.10979,0.004 0.0365,0.001 0.0732,0.002 0.1099,0.003 0.0366,0 0.0733,0 0.10989,0"
       title="t/12+cos(t/4) sin(t/4)"
       id="path43" />
    <path
       style="fill:none;fill-opacity:1;stroke:#ffffff;stroke-width:0.74;stroke-linecap:round;stroke-dasharray:none;stroke-opacity:1"
       d="m 115.2015,141.68829 c 0.0367,0 0.0734,0 0.11001,0 0.0366,-0.001 0.0733,-0.002 0.1099,-0.003 0.0366,-0.001 0.0732,-0.002 0.10968,-0.004 0.0366,-10e-4 0.0731,-0.003 0.10957,-0.006 0.0364,-0.002 0.0728,-0.004 0.10913,-0.008 0.0363,-0.002 0.0726,-0.006 0.10868,-0.009 0.0362,-0.003 0.0723,-0.008 0.10835,-0.0111 0.036,-0.004 0.0718,-0.008 0.10768,-0.0122 0.0357,-0.006 0.0714,-0.01 0.10701,-0.0144 0.0355,-0.006 0.0709,-0.0111 0.10624,-0.0167 0.0353,-0.006 0.0705,-0.0111 0.10557,-0.0166 0.035,-0.007 0.0698,-0.0133 0.10458,-0.02 0.0348,-0.007 0.0693,-0.0133 0.10357,-0.02 0.0344,-0.008 0.0686,-0.0144 0.10269,-0.0222 0.034,-0.008 0.0678,-0.0155 0.10146,-0.0244 0.0336,-0.008 0.067,-0.0166 0.10025,-0.0255 0.0333,-0.008 0.0663,-0.0166 0.0991,-0.0266 0.0328,-0.009 0.0653,-0.0189 0.0977,-0.0278 0.0323,-0.01 0.0644,-0.02 0.0962,-0.03 0.0319,-0.01 0.0635,-0.02 0.0949,-0.0311 0.0313,-0.0111 0.0624,-0.0211 0.0932,-0.0322 0.0309,-0.0111 0.0614,-0.0222 0.0917,-0.0344 0.0303,-0.0111 0.0603,-0.0233 0.09,-0.0344 0.0298,-0.0122 0.0592,-0.0244 0.0883,-0.0366 0.0292,-0.0122 0.0581,-0.0244 0.0866,-0.0377 0.0285,-0.0122 0.0567,-0.0255 0.0846,-0.0389 0.028,-0.0133 0.0555,-0.0266 0.0828,-0.04 0.0272,-0.0133 0.0542,-0.0266 0.0808,-0.0411 0.0265,-0.0133 0.0528,-0.0277 0.0787,-0.0422 0.026,-0.0144 0.0515,-0.0289 0.0767,-0.0433 0.0253,-0.0144 0.0502,-0.0289 0.0746,-0.0444 0.0245,-0.0144 0.0487,-0.03 0.0725,-0.0444 0.0238,-0.0155 0.0472,-0.0311 0.0703,-0.0466 0.023,-0.0155 0.0456,-0.0311 0.0679,-0.0466 0.0223,-0.0155 0.0442,-0.0322 0.0657,-0.0477 0.0215,-0.0166 0.0426,-0.0322 0.0634,-0.0488 0.0207,-0.0155 0.0411,-0.0322 0.061,-0.0488 0.02,-0.0166 0.0395,-0.0333 0.0586,-0.05 0.0192,-0.0166 0.0378,-0.0333 0.0562,-0.0511 0.0183,-0.0166 0.0363,-0.0333 0.0537,-0.05 0.0175,-0.0178 0.0346,-0.0344 0.0513,-0.0522 0.0167,-0.0167 0.0329,-0.0344 0.0487,-0.0522 0.0159,-0.0166 0.0312,-0.0344 0.0462,-0.0522 0.015,-0.0178 0.0295,-0.0355 0.0437,-0.0533 0.0141,-0.0178 0.0278,-0.0344 0.0411,-0.0522 0.0133,-0.0178 0.0261,-0.0355 0.0385,-0.0544 0.0124,-0.0178 0.0244,-0.0355 0.036,-0.0533 0.0115,-0.0178 0.0226,-0.0355 0.0333,-0.0533 0.0111,-0.0178 0.021,-0.0355 0.0307,-0.0544 0.01,-0.0178 0.0192,-0.0355 0.0282,-0.0533 0.009,-0.0178 0.0174,-0.0355 0.0255,-0.0544 0.008,-0.0178 0.0158,-0.0355 0.023,-0.0533 0.007,-0.0178 0.014,-0.0355 0.0203,-0.0533 0.007,-0.0178 0.0122,-0.0366 0.0178,-0.0544 0.006,-0.0178 0.0111,-0.0355 0.0152,-0.0522 0.004,-0.0178 0.009,-0.0355 0.0126,-0.0533 0.003,-0.0178 0.007,-0.0355 0.01,-0.0533 0.003,-0.0166 0.006,-0.0344 0.008,-0.0522 0.002,-0.0167 0.003,-0.0344 0.006,-0.0511 0.001,-0.0178 0.002,-0.0344 0.002,-0.0522 4.4e-4,-0.0166 4.4e-4,-0.0333 0,-0.0499 -3.3e-4,-0.0166 -0.001,-0.0344 -0.002,-0.05 -10e-4,-0.0166 -0.002,-0.0333 -0.004,-0.0499 -0.002,-0.0166 -0.004,-0.0333 -0.007,-0.0488 -0.003,-0.0166 -0.006,-0.0322 -0.01,-0.0477 -0.003,-0.0166 -0.008,-0.0322 -0.0119,-0.0477 -0.004,-0.0155 -0.009,-0.0311 -0.0141,-0.0466 -0.006,-0.0155 -0.01,-0.03 -0.0163,-0.0455 -0.006,-0.0155 -0.012,-0.03 -0.0185,-0.0444 -0.007,-0.0156 -0.0134,-0.03 -0.0207,-0.0444 -0.008,-0.0144 -0.0149,-0.0277 -0.0228,-0.0422 -0.008,-0.0144 -0.0162,-0.0278 -0.0249,-0.0422 -0.009,-0.0133 -0.0175,-0.0266 -0.0268,-0.04 -0.009,-0.0133 -0.0189,-0.0266 -0.0288,-0.04 -0.01,-0.0122 -0.0201,-0.0255 -0.0305,-0.0377 -0.01,-0.0122 -0.0213,-0.0255 -0.0324,-0.0366 -0.0111,-0.0122 -0.0225,-0.0244 -0.0342,-0.0366 -0.0117,-0.0111 -0.0236,-0.0233 -0.0359,-0.0344 -0.0123,-0.0111 -0.0247,-0.0222 -0.0375,-0.0333 -0.0128,-0.01 -0.0259,-0.0211 -0.0391,-0.0311 -0.0133,-0.0111 -0.0269,-0.0211 -0.0406,-0.0311 -0.0138,-0.009 -0.0277,-0.0189 -0.0421,-0.0289 -0.0142,-0.009 -0.0286,-0.0178 -0.0433,-0.0266 -0.0148,-0.01 -0.0296,-0.0178 -0.0447,-0.0266 -0.0151,-0.009 -0.0304,-0.0166 -0.046,-0.0244 -0.0154,-0.008 -0.0312,-0.0155 -0.0471,-0.0233 -0.0158,-0.008 -0.0319,-0.0144 -0.0481,-0.0211 -0.0162,-0.007 -0.0326,-0.0133 -0.0492,-0.02 -0.0165,-0.007 -0.0332,-0.0122 -0.0501,-0.0189 -0.0168,-0.006 -0.0337,-0.0111 -0.0508,-0.0167 -0.0171,-0.004 -0.0344,-0.01 -0.0517,-0.0144 -0.0173,-0.006 -0.0349,-0.01 -0.0524,-0.0133 -0.0175,-0.004 -0.0352,-0.009 -0.0529,-0.0122 -0.0178,-0.003 -0.0356,-0.007 -0.0535,-0.01 -0.0179,-0.003 -0.036,-0.007 -0.054,-0.009 -0.0181,-0.002 -0.0362,-0.004 -0.0544,-0.007 -0.0181,-0.002 -0.0363,-0.003 -0.0546,-0.004 -0.0182,-0.002 -0.0365,-0.003 -0.0548,-0.004 -0.0182,0 -0.0365,-0.001 -0.055,-0.001 -0.0183,0 -0.0366,0 -0.0549,0 -0.0183,0 -0.0366,0.001 -0.055,0.001 -0.0183,10e-4 -0.0365,0.002 -0.0548,0.004 -0.0182,0.001 -0.0364,0.002 -0.0546,0.004 -0.0181,0.002 -0.0363,0.004 -0.0543,0.007 -0.0181,0.002 -0.0361,0.006 -0.0539,0.009 -0.018,0.003 -0.0358,0.007 -0.0535,0.01 -0.0178,0.003 -0.0354,0.008 -0.0531,0.0122 -0.0175,0.003 -0.035,0.008 -0.0523,0.0133 -0.0174,0.004 -0.0346,0.01 -0.0517,0.0144 -0.0171,0.006 -0.0341,0.0111 -0.051,0.0167 -0.0168,0.007 -0.0335,0.0122 -0.0501,0.0189 -0.0165,0.007 -0.0329,0.0133 -0.0491,0.02 -0.0162,0.007 -0.0323,0.0133 -0.0482,0.0211 -0.0159,0.008 -0.0315,0.0155 -0.0471,0.0233 -0.0154,0.008 -0.0307,0.0155 -0.0459,0.0244 -0.0151,0.009 -0.0301,0.0166 -0.0447,0.0266 -0.0147,0.009 -0.0292,0.0178 -0.0434,0.0266 -0.0142,0.01 -0.0282,0.02 -0.042,0.0289 -0.0138,0.01 -0.0273,0.02 -0.0406,0.0311 -0.0133,0.01 -0.0263,0.0211 -0.0391,0.0311 -0.0128,0.0111 -0.0253,0.0222 -0.0375,0.0333 -0.0122,0.0111 -0.0242,0.0233 -0.0359,0.0344 -0.0117,0.0122 -0.0231,0.0244 -0.0342,0.0366 -0.0111,0.0111 -0.0219,0.0244 -0.0324,0.0366 -0.0111,0.0122 -0.0208,0.0255 -0.0306,0.0377 -0.01,0.0133 -0.0194,0.0266 -0.0286,0.04 -0.009,0.0133 -0.0182,0.0266 -0.0269,0.04 -0.009,0.0144 -0.0169,0.0278 -0.0248,0.0422 -0.008,0.0144 -0.0155,0.0277 -0.0228,0.0422 -0.008,0.0144 -0.0141,0.0289 -0.0206,0.0444 -0.007,0.0144 -0.0128,0.0289 -0.0185,0.0444 -0.006,0.0155 -0.0113,0.03 -0.0164,0.0455 -0.005,0.0155 -0.01,0.0311 -0.0141,0.0466 -0.004,0.0155 -0.008,0.0311 -0.0119,0.0477 -0.004,0.0155 -0.007,0.0311 -0.01,0.0477 -0.003,0.0155 -0.005,0.0322 -0.007,0.0488 -0.002,0.0166 -0.004,0.0333 -0.005,0.0499 -0.001,0.0155 -0.002,0.0333 -0.002,0.05 -3.3e-4,0.0166 -3.3e-4,0.0333 1.1e-4,0.0499 4.4e-4,0.0178 0.001,0.0344 0.002,0.0522 0.001,0.0166 0.003,0.0344 0.005,0.0511 0.002,0.0178 0.005,0.0355 0.007,0.0522 0.003,0.0178 0.006,0.0355 0.0101,0.0533 0.004,0.0178 0.008,0.0355 0.0125,0.0533 0.005,0.0167 0.01,0.0344 0.0152,0.0522 0.005,0.0178 0.0113,0.0366 0.0178,0.0544 0.007,0.0178 0.0131,0.0355 0.0203,0.0533 0.008,0.0178 0.0149,0.0355 0.023,0.0533 0.008,0.0189 0.0165,0.0366 0.0255,0.0544 0.009,0.0178 0.0183,0.0355 0.0281,0.0533 0.01,0.0189 0.0201,0.0366 0.0307,0.0544 0.0111,0.0178 0.0219,0.0355 0.0334,0.0533 0.0115,0.0178 0.0235,0.0355 0.0359,0.0533 0.0124,0.0189 0.0253,0.0366 0.0386,0.0544 0.0132,0.0178 0.027,0.0344 0.0411,0.0522 0.0141,0.0178 0.0286,0.0355 0.0436,0.0533 0.015,0.0178 0.0304,0.0355 0.0463,0.0522 0.0158,0.0178 0.0321,0.0355 0.0487,0.0522 0.0166,0.0178 0.0337,0.0344 0.0512,0.0522 0.0175,0.0166 0.0354,0.0333 0.0537,0.05 0.0183,0.0178 0.0371,0.0344 0.0562,0.0511 0.0192,0.0166 0.0387,0.0333 0.0586,0.05 0.02,0.0166 0.0403,0.0333 0.0611,0.0488 0.0208,0.0167 0.0419,0.0322 0.0634,0.0488 0.0215,0.0155 0.0434,0.0322 0.0657,0.0477 0.0222,0.0156 0.0448,0.0311 0.0679,0.0466 0.0231,0.0155 0.0464,0.0311 0.0703,0.0466 0.0238,0.0144 0.0478,0.03 0.0724,0.0444 0.0245,0.0155 0.0494,0.03 0.0746,0.0444 0.0252,0.0144 0.0508,0.0289 0.0767,0.0433 0.026,0.0144 0.0522,0.0289 0.0788,0.0422 0.0266,0.0144 0.0535,0.0278 0.0808,0.0411 0.0272,0.0133 0.0548,0.0266 0.0827,0.04 0.028,0.0133 0.0562,0.0267 0.0847,0.0389 0.0285,0.0133 0.0574,0.0255 0.0865,0.0377 0.0292,0.0122 0.0586,0.0244 0.0884,0.0366 0.0296,0.0111 0.0597,0.0233 0.09,0.0344 0.0302,0.0122 0.0608,0.0233 0.0917,0.0344 0.0308,0.0111 0.062,0.0211 0.0933,0.0322 0.0314,0.0111 0.063,0.0211 0.0948,0.0311 0.0319,0.01 0.064,0.02 0.0964,0.03 0.0323,0.009 0.0649,0.0189 0.0977,0.0278 0.0327,0.01 0.0658,0.0189 0.099,0.0266 0.0333,0.009 0.0667,0.0178 0.10035,0.0255 0.0336,0.009 0.0674,0.0166 0.10147,0.0244 0.034,0.008 0.0683,0.0144 0.10257,0.0222 0.0344,0.007 0.0689,0.0133 0.10369,0.02 0.0346,0.007 0.0696,0.0133 0.10457,0.02 0.0351,0.006 0.0702,0.0111 0.10547,0.0166 0.0353,0.006 0.0708,0.0111 0.10635,0.0167 0.0355,0.004 0.0713,0.009 0.10701,0.0144 0.0357,0.004 0.0717,0.008 0.10768,0.0122 0.036,0.003 0.0721,0.008 0.10824,0.0111 0.0362,0.003 0.0725,0.007 0.10879,0.009 0.0363,0.003 0.0727,0.006 0.10913,0.008 0.0364,0.002 0.0729,0.004 0.10946,0.006 0.0365,0.002 0.0731,0.003 0.10979,0.004 0.0365,0.001 0.0731,0.002 0.1099,0.003 0.0366,0 0.0733,0 0.1099,0"
       title="t/12+cos(t/4) sin(t/4)"
       id="path44" />
    <path
       style="fill:#ffffff;fill-opacity:1;stroke:#ffffff;stroke-width:0.999626;stroke-linecap:round;stroke-dasharray:none;stroke-opacity:1"
       id="path46"
       d="M 95.394173,237.22654 78.909362,226.6822 74.692802,207.57323 91.177613,218.11757 Z"
       transform="matrix(0.38789073,0.2658096,-0.2658096,0.38789073,130.62601,7.3336103)" />
    <path
       style="fill:none;stroke:#ffffff;stroke-width:1.165;stroke-linecap:round;stroke-linejoin:miter;stroke-dasharray:none;stroke-opacity:1"
       d="m 92.646697,167.21554 v -31.34689 a 13.585899,13.585899 80.058542 0 0 -0.809861,-4.62055 l -1.926105,-5.32577"
       id="path47"
       transform="translate(-0.18997982,15.76596)" />
    <path
       style="fill:none;stroke:#ffffff;stroke-width:1.165;stroke-linecap:round;stroke-linejoin:miter;stroke-dasharray:none;stroke-opacity:1"
       d="m 92.646697,167.21554 v -31.34689 a 13.585899,13.585899 80.058542 0 0 -0.809861,-4.62055 l -1.926105,-5.32577"
       id="path48"
       transform="matrix(-1,0,0,1,210.33733,15.76596)" />
  </g>
</svg>
